<?xml version="1.0" encoding="utf-8"?>
<!-- Generator: Adobe Illustrator 19.2.1, SVG Export Plug-In . SVG Version: 6.00 Build 0)  -->
<svg version="1.1" id="layer" xmlns="http://www.w3.org/2000/svg" xmlns:xlink="http://www.w3.org/1999/xlink" x="0px" y="0px"
	 viewBox="0 0 652 652" style="enable-background:new 0 0 652 652;" xml:space="preserve">
<style type="text/css">
	.st0{fill:#0596DE;}
</style>
<path class="st0" d="M326.4,350.9c-3.8,5.9-14.8-18-23.8-5c-1.6,2.3-8.2,22.9,5.8,28.8c16.1,6.9,26.8-10.1,33.2-45.7
	c0.4-1.8,0.1,19.4,1.1,18.7c0.9-0.6,1.8-0.7,2.8-0.3c1,0.4,1.8,1.3,2.3,2.5c0.6,1.2,0.7,2.9,0.6,4.9c-0.4,2.3-1.1,5-2.1,8.2
	c-1,3.3-12.3,23.5-33.8,23.3c-21.9-0.1-33.1-23.8-34.1-27.4c-1.1-3.7-1.6-7.2-1.6-10.7c0.1-3.5,0.6-6.6,1.6-9.5
	c1-2.9,2.1-4.9,3.4-6.2c1.3-1.2,7.4-12.2,30-6.3C333.5,332.1,328,348.6,326.4,350.9z"/>
<path class="st0" d="M380.1,286.3c0,0-18,75.3-18.5,78.3c-0.9,7.3-0.9,11.1,4.9,13.1c8.4,2.8,15.9-10.8,15.9-10.8
	c10.1-21.1,5.4-22.8,22.2-22.1c2.3,0.1-4.9,8.9-5.2,11c-0.2,1.1-0.8,3.3-1.8,6.6c-1.1,3.4-2.6,6.9-4.7,10.5
	c-2.1,3.5-4.6,6.7-7.5,9.5c-3,2.8-6.2,4.2-9.6,4.2c-7.1,0-13.1-2-17.8-5.9s-8.6-8.8-11.6-14.6c-3-5.9-5.9-12.4-6.2-18.8
	c-0.9-23,12.7-72.5,14.1-74s3.2-2.3,5.4-2.3c2.1,0,4.7,1.3,8.3,2.5C383.6,278.2,380.1,286.3,380.1,286.3L380.1,286.3z M544.7,352.9
	c1.3-3.1,3.3-4.1,5.9-2.9c2.5,1.2,3.5,3.7,3,7.6c-0.4,2.6-1,5.4-2.1,8.2c-1.1,2.9-6.2,19.4-21.6,19.4c-14,0-22.8-18.2-24.5-21.4
	c-1.6-3-3-6.2-4.1-9.8c-1.1-3.5-1.8-6.8-2-9.8c-0.3-3-0.1-5.4,0.4-7.3c0.4-1.9,1.4-2.8,3-2.6c1.4,0.4,3,0.8,4.9,1.4
	c1.8,0.6,3.5,1.3,5.2,2.1c1.7,0.8,3.2,1.7,4.6,2.8c1.4,1.1,2.5,2.3,3.3,3.7c0.8,1.4,1.3,3.5,1.8,6.2c0.4,2.7,0.8,5.4,1.3,8.2
	c0.5,2.8,0.9,5.3,1.4,7.6c0.5,2.3,1.2,3.7,2.3,4.2c0.8,0.4,1.8,0.1,3.3-0.6c1.5-0.8,3-2,4.7-3.5c1.6-1.6,3.3-3.5,5-5.7
	C542,358.2,543.4,355.8,544.7,352.9L544.7,352.9z"/>
<path class="st0" d="M328.4,304.7c10.2-0.8,20.1-1.6,29.8-2.8c9.7-1.1,2.5-0.6,10.3-1.6c7.8-1,14.3-1.8,19.4-2.6
	c5.2-0.7,8.3-1.1,9.5-1.1c2.3-0.1,4.9,0.3,7.8,1.1c3,0.8,5.7,1.8,8.3,3.1c2.5,1.2,4.7,2.5,6.3,4s2.1,2.8,1.6,4
	c-0.4,0.7-2.9,1.2-7.6,1.5c-4.7,0.3-10.9,0.5-18.7,0.7c-7.8,0.2-16.8,0.4-26.9,0.6c-10.2,0.2,17.1-2.4-16.4-0.7
	C318.1,312.8,328.4,304.7,328.4,304.7L328.4,304.7z M237.3,328c2.7,0,5.2,0.6,7.6,2c2.4,1.3,4,3.2,4.7,5.4c5.2,1.1,9.1,3.5,11.8,7.1
	s4.2,7.8,4.7,12.4c4.9,0.6,14.2-4.8,14.2-15.4c0-2.3,2.6,6.9,1.7,13.4c-0.2,1.7-4.9,14.6-18.5,16c-2.4,0.3-3.5,2.6-4.6,5.2
	c-0.8,1.8-7.4,12-23.6,12c-10,0-17-9-19.7-12.3c-2.6-3.3-4-6.9-4.1-10.9c-0.3-3.8,0.2-7.8,1.3-11.9c1.1-4.1,2.8-7.9,5-11.3
	c2.2-3.5,4.9-6.2,8.2-8.5C229.3,329.1,233,328,237.3,328L237.3,328z M231,376.2c1.8,2.3,4.7,2.3,8.8,0c4.1-2.3,7.8-5.7,11.2-10.5
	c-3.5-2.3-6.6-5.2-9.5-9c-2.9-3.7-5.2-8.2-6.8-13.2c-3.7,6.4-6,12.8-6.9,19.2C227,368.8,228,373.4,231,376.2z M414.8,328
	c2.7,0,5.2,0.6,7.6,2c2.4,1.3,4,3.2,4.7,5.4c5.2,1.1,9,3.5,11.8,7.1c2.7,3.6,4.2,7.8,4.7,12.4c4.9,0.6,14.2-4.8,14.2-15.4
	c0-2.3,2.6,6.9,1.7,13.4c-0.2,1.7-4.9,14.6-18.5,16c-2.4,0.3-3.5,2.6-4.6,5.2c-0.8,1.8-7.4,12-23.6,12c-10,0-17-9-19.7-12.3
	c-2.6-3.3-4-6.9-4.1-10.9c-0.2-3.8,0.2-7.8,1.3-11.9c1.1-4.1,2.8-7.9,5-11.3c2.2-3.5,4.9-6.2,8.2-8.5
	C406.9,329.1,410.6,328,414.8,328z M408.6,376.2c1.8,2.3,4.7,2.3,8.8,0c4.1-2.3,7.8-5.7,11.2-10.5c-3.5-2.3-6.6-5.2-9.5-9
	c-2.9-3.7-5.2-8.2-6.8-13.2c-3.7,6.4-6,12.8-6.9,19.2C404.6,368.8,405.6,373.4,408.6,376.2L408.6,376.2z"/>
<path class="st0" d="M507.8,350.3c-1.6-1.1-8.6-17-8.1-13.3c0.8,6.2-14.3,40.4-25.7,34.5c-11.9-6.1-7.4-25.2-6.7-26.2
	c3-4.9,23.3-29.3,31.6-77.8c0.8-4.8,2.8-23.5-16.6-26.7c-20.7-3.4-25.4,7.1-27.5,11.6c-8.1,18.4-5.4,83.7,1.6,111.1
	c1.6,6.2,9.8,21.8,20.7,21.8c17.6,0,26.6-17.9,27.9-20.8s2.6-5.7,3.7-8.5C509.7,353.3,509.4,351.4,507.8,350.3L507.8,350.3z
	 M469.9,290.7c0.3-5.1,0.6-10.1,0.8-15.1c0.3-4.9,0.8-9.3,1.6-13.1c0.8-3.9,1.8-6.9,3.1-9.2c1.3-2.3,2.9-3.3,4.7-3.3
	c2.8,0.2,4.7,2.2,5.7,5.8c1,3.6,1.3,8.1,1,13.5c-0.3,5.4-1.2,11.3-2.6,17.8c-1.4,6.5-2.9,12.7-4.5,18.7c-2.3,8.9-7.6,19.9-8.8,21.9
	C470.3,309.5,469.6,300.3,469.9,290.7L469.9,290.7z M619.9,350.6c-0.7-0.2-1.5-0.1-2.2,0.4c-0.7,0.4-1.4,1-2,1.7
	c-1.3,2.5-3,4-5.2,4.6s-4.9,0.5-8.3-0.4c0-2.1-0.4-4.2-1.1-6.3c-0.7-2.1-1.8-3.9-3.5-5.5c-1.6-1.9-3.9-3.3-6.9-4.2
	c-2.9-0.8-5.4-1.3-7.3-1.3c-2,0.2-3.6,0.8-4.9,1.8c-1.3,1.1-2.1,2.3-2.5,3.9c-0.4,1.6-0.2,3.3,0.4,5.2s1.7,3.8,3.3,5.7
	c-0.1,1.6-0.4,3.5-0.8,5.7c-0.4,2.3-1,4.4-1.8,6.3c-0.8,1.9-1.7,3.5-2.7,4.7c-1,1.2-2.3,1.4-3.7,0.5c-1.5-0.8-2.5-2.4-3.3-4.6
	s-1.3-4.5-1.8-6.9c-0.5-2.8-0.7-5.7-0.8-8.9c3.3-4.7,6.5-10.1,9.7-16.2c3.2-6.1,6.1-12.5,8.7-19.2c2.6-6.7,4.9-13.4,6.9-20.1
	c2-6.7,3.5-13,4.5-18.9c1.1-5.9,1.4-11.2,1.1-16c-0.3-4.8-1.3-8.6-3.3-11.4c-1.6-2.4-4.2-4.6-7.5-6.4c-3.4-1.8-6.9-3.3-10.5-4.2
	c-3.6-0.9-6.9-1.6-10-1.7c-3.1-0.1-5.4,0.1-6.9,0.8c-4.4,1.9-8,5.9-10.7,12.2c-2.7,6.2-4.6,13.4-5.9,21.7c-1.2,8.3-1.9,17.1-2,26.5
	c-0.1,9.4,0.2,18.3,0.9,26.7c0.7,8.3,1.8,15.7,3,21.9c1.3,6.3,2.6,10.5,4.2,12.8c2,3,15,23.8,33.1,23.8c16.9,0,22.1-20.4,18.1-21
	C613.4,366.5,620.6,350.8,619.9,350.6L619.9,350.6z M562.6,291.6c0.3-5.1,0.6-10.1,0.9-15.1c0.4-4.9,0.9-9.3,1.8-13.1
	c0.8-3.9,2-6.9,3.5-9.2c1.5-2.3,3.2-3.3,5.2-3.3c3.2,0.2,5.3,2.2,6.4,5.8c1.1,3.6,1.4,8.1,1.1,13.5c-0.4,5.4-1.3,11.3-2.9,17.8
	c-1.6,6.4-3.3,12.7-4.9,18.7c-1.7,6-3.6,11.4-5.7,16.1c-2.1,4.7-3.7,8.2-5,10.2C562.3,317.6,562.2,303.7,562.6,291.6L562.6,291.6z
	 M589.7,351.9c-0.6-0.5-1.1-1-1.6-1.5c-0.6-0.5-1-1-1.3-1.4c-0.4-0.4-0.6-0.8-0.7-1.2c-0.1-0.4-0.1-0.6,0.1-0.8
	c0.4-0.4,0.8-0.4,1.3-0.1s1.1,0.6,1.7,1.1c0.6,0.5,1.2,1.2,1.8,2c0.6,0.8,1.1,1.6,1.7,2.3s1,1.4,1.3,2.1c0.4,0.6,0.6,1.1,0.7,1.5
	C592.6,354.4,591,353.1,589.7,351.9L589.7,351.9z"/>
<path class="st0" d="M521.1,306.8c0,5.8-4.5,10.5-10.1,10.5c-5.6,0-10.1-4.7-10.1-10.5c0-5.8,4.5-10.5,10.1-10.5
	C516.6,296.3,521.1,301,521.1,306.8z M43.6,321.3c0,0-0.2,0.4-0.6,1.3c-0.4,0.8-0.8,2-1.4,3.5c-1.2,3-2.7,7.5-3.4,12.8
	c-0.4,2.7-0.5,5.6-0.4,8.7c0.1,1.6,0.2,3.2,0.4,4.8c0.1,0.8,0.2,1.6,0.4,1.9c0.1,0.6,0.4,1.2,0.6,1.8c1.8,5,7.1,11.1,14.4,16.5
	c7.4,5.4,16.5,10.4,26.7,15.3c10.2,4.7,21.6,9.4,34.3,11.2c6.3,0.8,12.8,1.1,19.3,0.1c3.3-0.4,6.4-1.1,9.6-2.1
	c3.2-0.9,6.2-2.1,9.2-3.6c5.9-2.9,11.3-6.9,15.7-11.7c4.4-4.8,7.8-10.4,10.4-16.3c1.3-3,2.3-5.9,3.3-9c0.9-3.1,1.6-6.1,2.4-9.6
	l0.6-2.5l0.5-2.4c0.4-1.6,0.8-3.2,1.1-4.8c0.3-1.6,0.7-3.3,1-4.9c0.3-1.6,0.6-3.3,0.8-4.8c2.3-12.8,2.7-25.4,0.6-36.1
	c-1.1-5.3-2.7-10-4.9-14.2c-1.1-2.1-2.4-4-3.7-5.8c-1.4-1.8-3-3.5-4.7-4.9c-6.8-6.2-15.9-10.3-25-12.9c-9.2-2.6-18.3-4-26.6-4.8
	c-8.3-0.8-15.6-1.1-21.8-1.3c-6.2-0.1-11-0.2-14.4-0.1c-3.3,0-5.1,0.1-5.1,0.1h-1.3l-0.5-1.8l1.1-0.6c0,0,1.6-0.8,4.8-2.2
	c3.2-1.3,7.8-3.1,14-4.9c6.2-1.8,13.7-3.7,22.7-4.9c9-1.2,19.4-1.8,31-0.4c5.8,0.7,11.9,2,18.2,4.2c1.6,0.5,3.2,1.2,4.7,1.8
	c1.6,0.7,3.2,1.4,4.7,2.3c3.2,1.6,6.3,3.7,9.3,5.9c3,2.3,5.9,5,8.5,8c2.5,3,4.9,6.4,6.9,9.9c1.9,3.5,3.5,7.3,4.7,11.1
	c0.6,1.9,1.1,3.8,1.6,5.8c0.4,1.9,0.7,3.9,1,5.8c1.1,7.8,0.8,15.6,0,23c-0.8,7.5-2.4,14.8-4.4,22c-0.5,1.8-1.1,3.5-1.6,5.3
	c-0.6,1.8-1.1,3.5-1.8,5.2c-0.6,1.8-1.3,3.5-2,5.2l-1.1,2.6c-0.4,0.8-0.7,1.6-1.1,2.5l-2.3,5c-0.8,1.8-1.7,3.5-2.6,5.2
	c-1.8,3.4-4,6.7-6.3,9.9c-4.7,6.3-10.3,11.8-16.3,16.4s-12.7,8.2-19.4,11c-1.7,0.7-3.4,1.3-5.1,1.9c-1.7,0.6-3.5,1.2-5.2,1.6
	c-3.5,1-6.9,1.8-10.5,2.5c-7,1.3-13.9,2.3-20.9,2.8c-13.9,0.9-27.8,0.2-40.5-3.1c-12.7-3.3-24.2-9-33.5-16.7
	c-4.7-3.7-8.8-8.1-12.3-12.9c-3.4-4.8-6.2-10.3-7.2-16.2c-0.3-1.5-0.5-3-0.6-4.5c-0.1-1.7-0.1-3,0.1-4.2c0.1-1.2,0.3-2.3,0.6-3.5
	c0.2-1.1,0.4-2.3,0.8-3.3c1.1-4.2,2.8-8,4.7-11.1c3.7-6.2,8-9.8,11-11.9c0.7-0.6,1.4-1,2.1-1.3c0.6-0.4,1.1-0.6,1.5-0.8
	c0.8-0.4,1.2-0.6,1.2-0.6l1.1-0.6l1.1,1.1L43.6,321.3L43.6,321.3z"/>
<path class="st0" d="M126.3,276c-5.3,26.9-10.5,53.9-15.8,80.8c-1.7,8.8,16.7-1.3,17.8-7.4c5.3-26.9,10.5-53.9,15.8-80.8
	C145.9,259.8,127.5,270,126.3,276L126.3,276z"/>
</svg>
