<?xml version="1.0"?>
<svg xmlns="http://www.w3.org/2000/svg" xmlns:xlink="http://www.w3.org/1999/xlink" xmlns:svgjs="http://svgjs.com/svgjs" version="1.1" width="512" height="512" x="0" y="0" viewBox="0 0 512.002 512.002" style="enable-background:new 0 0 512 512" xml:space="preserve" class=""><g><g xmlns="http://www.w3.org/2000/svg"><path d="m511.976 151.535c-.192-6.29-4.298-11.897-10.46-13.839-3.077-.971.325-.695-106.458-.695-38.886-58.399-104.947-96-179.059-96-119.103 0-216 96.449-216 215s96.897 215 216 215c74.174 0 140.209-37.655 179.059-96h101.942c8.284 0 15-6.716 15-15 0-182.611.013-207.28-.024-208.466zm-57.995 15.466-88.086 69.931-90.104-69.931zm-237.981 274c-102.561 0-186-82.991-186-185s83.439-185 186-185c55.593 0 106.807 24.254 141.692 66-134.475 0-125.565-.029-126.727.052-7.349.504-13.27 6.304-13.9 13.656-.095 1.111-.065-5.316-.065 82.291h-73c-8.284 0-15 6.716-15 15s6.716 15 15 15h73v97c0 8.284 6.716 15 15 15h125.692c-34.885 41.747-86.099 66.001-141.692 66.001zm31-96v-162.371l109.803 85.22c5.45 4.231 13.101 4.203 18.523-.102l106.674-84.686v161.939z" fill="#b5c5d3" data-original="#000000" style="" class=""/><path d="m128 199.001h24c8.284 0 15-6.716 15-15s-6.716-15-15-15h-24c-8.284 0-15 6.716-15 15s6.716 15 15 15z" fill="#b5c5d3" data-original="#000000" style="" class=""/><path d="m144 297.001h-48c-8.284 0-15 6.716-15 15s6.716 15 15 15h48c8.284 0 15-6.716 15-15s-6.716-15-15-15z" fill="#b5c5d3" data-original="#000000" style="" class=""/></g></g></svg>
