<svg id="ea1e8a01-5ae1-4d5a-93cc-480eb78ab647" data-name="vecto" xmlns="http://www.w3.org/2000/svg" viewBox="0 0 252.66 252.66"><title>logoCEESO2015</title><path d="M93.09,226.73l-.66,1.12a9.09,9.09,0,0,0-2-.92c-1.92-.75-3.37-.19-4.51,1.73a3.81,3.81,0,0,0-.43,3.46,3.21,3.21,0,0,0,1.27,1.44c.38.27,1.41.88,3,1.85l3.61,2.18L97,239.67c3.48,2,3.75,2.15,5,2.06a3.65,3.65,0,0,0,2.62-2c1.41-2.37.81-4-2.1-5.77l-.83-.5.8-1.34.94.56c2.14,1.28,2.87,2,3.32,3.4a5.24,5.24,0,0,1-.8,4.4,7.31,7.31,0,0,1-1.28,1.64,4.34,4.34,0,0,1-2.33,1.32c-1.49.28-2.71-.13-6.13-2.13l-3.66-2.17-3.64-2.2c-1.8-1.07-2.9-1.76-3.37-2.08a5.23,5.23,0,0,1-1.56-2.13,5.51,5.51,0,0,1,.65-4.72,15.48,15.48,0,0,1,3.78-4.1Z" transform="translate(-64.87 -162)" style="fill:#2a4053"/><path d="M108.38,233.39l.1-.13c.19-.24.12-.42-.17-.64L92.22,220c-.28-.22-.5-.22-.66,0l-.08.11-1-.78,6.17-7.89,4.95,3.87-.9,1.16L98.78,215a3.25,3.25,0,0,0-1.9-.81c-.4,0-.65.25-1.27,1l-2.52,3.23,7.31,5.71,3.79-4.85,1.13.88L101.53,225l8.12,6.35,2.91-3.73c.65-.83.77-1.2.69-1.69a4.75,4.75,0,0,0-1.65-1.88l-1.83-1.43.88-1.13,5.31,4.15-6.61,8.47Z" transform="translate(-64.87 -162)" style="fill:#2a4053"/><path d="M116.15,223.66l.12-.11c.21-.21.17-.4-.09-.66l-14.4-14.47c-.26-.26-.47-.28-.66-.1l-.09.1-.9-.9,7.1-7.06,4.43,4.46-1,1-1.71-1.72a3.34,3.34,0,0,0-1.78-1c-.4,0-.68.16-1.39.87l-2.9,2.88,6.54,6.58,4.36-4.34,1,1-4.36,4.34,7.27,7.31,3.35-3.33c.75-.76.92-1.11.89-1.6a4.74,4.74,0,0,0-1.4-2.07l-1.64-1.65,1-1,4.76,4.78L117,224.54Z" transform="translate(-64.87 -162)" style="fill:#2a4053"/><path d="M122.68,195.86l-1,.76c-2.33-2.74-3.92-3.32-5.65-2a3.62,3.62,0,0,0-.55,5.22,4.15,4.15,0,0,0,2.43,1.61,18.63,18.63,0,0,0,4.68.67,32.81,32.81,0,0,1,4.93.55,6.28,6.28,0,0,1,3.67,2.34,5.56,5.56,0,0,1-1.16,8.18,15.17,15.17,0,0,1-1.65,1.07,10.17,10.17,0,0,1-2.88,1l-3.81-4.92,1-.82a18.42,18.42,0,0,0,2.48,2.67,3,3,0,0,0,3.93-.1,4,4,0,0,0,.57-5.83,5.46,5.46,0,0,0-2.87-1.86,44.14,44.14,0,0,0-4.6-.56l-2.76-.25a7.13,7.13,0,0,1-5.46-2.54,5.28,5.28,0,0,1,1.16-7.68,5.36,5.36,0,0,1,1.61-.91,12.93,12.93,0,0,1,2.7-.7Z" transform="translate(-64.87 -162)" style="fill:#2a4053"/><path d="M144,200.83c.28,1.84-.85,3.66-3.09,5a6.48,6.48,0,0,1-3.91,1,3.84,3.84,0,0,1-2-.73c-1-.74-1.17-1-2.78-3.77l-5.07-8.63c-1.6-2.73-1.72-3-1.92-4.27-.28-1.84.88-3.68,3.12-5a6.69,6.69,0,0,1,3.86-1,3.84,3.84,0,0,1,2,.76c1,.74,1.16,1,2.79,3.77l5.07,8.63C143.68,199.28,143.81,199.56,144,200.83Zm-3.44-3.3-5.15-8.78c-.49-.83-.84-1.36-1-1.68a5.32,5.32,0,0,0-1.06-1.34,2.41,2.41,0,0,0-1.43-.67,4.27,4.27,0,0,0-2.77.67c-1.64,1-2.38,2.32-2,3.67a4.56,4.56,0,0,0,.63,1.6l1,1.69,5.15,8.77,1,1.75a4.63,4.63,0,0,0,1.08,1.33,2.63,2.63,0,0,0,1.41.68,4.46,4.46,0,0,0,2.8-.68c1.6-.94,2.38-2.32,2-3.67a6.23,6.23,0,0,0-.66-1.58C141.38,199,141.08,198.39,140.57,197.53Z" transform="translate(-64.87 -162)" style="fill:#2a4053"/><path d="M155.86,195.9a1.26,1.26,0,1,1,.84,2.38,1.27,1.27,0,0,1-1.68-.72A1.31,1.31,0,0,1,155.86,195.9Z" transform="translate(-64.87 -162)" style="fill:#2a4053"/><path d="M165.94,173.52a3.12,3.12,0,0,0,2.13-1.3,4.31,4.31,0,0,0,.66-2.38l1-.18,3.94,21.85c.06.33.26.5.46.46l.36-.06.21,1.21-3.1.56-.22-1.21.26-.05a.58.58,0,0,1,.16-.06.59.59,0,0,0,.18-.14l0-.31,0-.1L168.84,174l-2.71.49Z" transform="translate(-64.87 -162)" style="fill:#2a4053"/><path d="M189.27,183.29c.3,4.47.28,5.21-.2,6.51-.6,1.47-2.4,2.49-4.72,2.64-3.42.23-5.25-1.31-5.47-4.56l-.09-1.3,1.7-.11.07,1.16c.16,2.42,1.33,3.48,3.72,3.32,2.62-.18,3.61-1.44,3.41-4.36l-.31-4.71c-.25.32-.46.6-.59.74a5.35,5.35,0,0,1-3.21,1.25,5.2,5.2,0,0,1-4.49-1.81,5.35,5.35,0,0,1-.93-2.47c-.09-.36-.2-1.48-.37-3.51l-.07-1.06c-.19-2.92-.11-3.69.51-4.93.67-1.41,2.34-2.32,4.53-2.47a5.66,5.66,0,0,1,4.35,1.25c1.06,1,1.29,1.81,1.57,5.52l.29,4.45Zm-2.16-6-.32-4.74c-.17-2.59-1.41-3.68-4-3.5s-3.6,1.5-3.41,4.29l.3,4.48a5.37,5.37,0,0,0,.95,3.34,3.81,3.81,0,0,0,3.14,1.05,3.77,3.77,0,0,0,3-1.53C187.24,179.89,187.27,179.72,187.11,177.33Z" transform="translate(-64.87 -162)" style="fill:#2a4053"/><path d="M203.49,184c-.29,4.48-.4,5.21-1.05,6.43-.79,1.38-2.7,2.16-5,2-3.41-.23-5-2-4.82-5.25l.08-1.29,1.69.11-.07,1.16c-.16,2.42.86,3.62,3.25,3.78,2.62.17,3.76-1,4-3.88l.31-4.71c-.29.28-.54.53-.68.65a5.35,5.35,0,0,1-3.35.82,5.2,5.2,0,0,1-4.21-2.37,5.27,5.27,0,0,1-.6-2.57c0-.37,0-1.5.09-3.53l.07-1.06c.19-2.92.37-3.67,1.15-4.82.85-1.32,2.63-2,4.82-1.86a5.74,5.74,0,0,1,4.15,1.8c.92,1.1,1,2,.83,5.69l-.29,4.44Zm-1.36-6.19.3-4.74c.17-2.59-.92-3.82-3.5-4s-3.77,1-4,3.81l-.29,4.48a5.44,5.44,0,0,0,.51,3.43,3.85,3.85,0,0,0,3,1.46,3.78,3.78,0,0,0,3.17-1.13C201.93,180.36,202,180.19,202.13,177.8Z" transform="translate(-64.87 -162)" style="fill:#2a4053"/><path d="M210.36,172.44a3.12,3.12,0,0,0,2.45-.44c.58-.36.87-.81,1.47-2l1,.19L211.06,192c-.06.33.07.55.26.59l.36.07-.23,1.21-3.11-.6.24-1.21.26,0s.07,0,.17,0a.4.4,0,0,0,.21-.06l.16-.28.05-.09L212.87,174l-2.71-.53Z" transform="translate(-64.87 -162)" style="fill:#2a4053"/><path d="M227.65,196.42a1.25,1.25,0,0,1,.76,1.64,1.27,1.27,0,0,1-1.7.71,1.29,1.29,0,0,1-.79-1.66A1.32,1.32,0,0,1,227.65,196.42Z" transform="translate(-64.87 -162)" style="fill:#2a4053"/><path d="M238.32,202.13l.11.07c.32.18.43.13.62-.14,0-.06,0-.06.08-.07l10.45-17.54a.45.45,0,0,0-.15-.71l-.12-.07.7-1.17a16.23,16.23,0,0,0,1.67,1.15,14.49,14.49,0,0,0,2,1,10.44,10.44,0,0,1,1.41.68c2.91,1.74,3.5,4.91,1.49,8.28s-5.43,4.39-8.64,2.48a14.1,14.1,0,0,1-1.62-1.16l.65-1.16c.62.45,1,.71,1.29.88,2.46,1.47,5,.66,6.61-2.06s1.16-4.88-1.35-6.37c-.49-.29-.93-.52-2.23-1.14L240.7,202.93c-.18.31-.18.51.05.64l.2.12-.63,1.06-2.63-1.57Z" transform="translate(-64.87 -162)" style="fill:#2a4053"/><path d="M247,207.09l.1.08c.21.16.4.14.7-.13l17.9-13.72a9.9,9.9,0,0,0,2.07.81l-9.07,21.36c-.12.37-.12.58,0,.71l.13.1-.75,1-2.39-1.85.75-1,.11.08c.23.19.33.18.51-.06l.1-.13,2.87-6.74-5-3.87-5.84,4.44-.08.1c-.2.26-.19.36,0,.52l.1.08-.75,1-2.29-1.77Zm9.14-4.31,4.57,3.54,4.09-9.66a12.21,12.21,0,0,1,.83-1.46,9.24,9.24,0,0,1-1.27,1.16Z" transform="translate(-64.87 -162)" style="fill:#2a4053"/><path d="M259.27,216.86l.1.09s.07,0,.11.08.14.09.19.05l.26-.17.1,0,14.57-14.3.09-.09a.34.34,0,0,0,0-.54l-.09-.1,1-1a12.51,12.51,0,0,0,1.12,1.28,22.05,22.05,0,0,0,1.77,1.61,14.74,14.74,0,0,1,1.28,1.12c2.17,2.21,2,5-.4,7.33A8,8,0,0,1,276.7,214a5.64,5.64,0,0,1-2.54.16c-1.41-.2-2.25-.63-3.91-2.08l-.44,1.5c-.09.38-.22,1.06-.46,2-.35,1.5-.57,2.56-.67,3.12l-.62,3.64a11.52,11.52,0,0,0-.29,3.83l-1,.6a8,8,0,0,1-.34-4.56c.13-1.39.33-2.75.54-4a39.67,39.67,0,0,1,1.34-5.65l.56-1.81-7.55,7.41,0,.09-.17.21c-.07.07,0,.24.18.43l.12.12-.88.86-2.1-2.14Zm10.51-7.05.53.55c2.61,2.66,5.22,2.85,7.57.54,1.83-1.79,1.89-3.72.19-5.45a6.72,6.72,0,0,0-.53-.5c-.4-.41-.68-.64-.84-.81a6.83,6.83,0,0,1-.63-.5Z" transform="translate(-64.87 -162)" style="fill:#2a4053"/><path d="M268.21,226.37l.1.13c.22.25.36.27.61.06,0,0,.07,0,.1,0l15.79-12.9.08-.11.19-.24s0-.12-.05-.22l-.1-.12-.11-.13,1-.82,1.89,2.31-1,.83-.11-.13c-.17-.21-.32-.3-.45-.19l-.13.1a.18.18,0,0,1-.06.14L270.15,228c-.28.23-.32.39-.17.57l.12.16-1,.77-1.89-2.31Z" transform="translate(-64.87 -162)" style="fill:#2a4053"/><path d="M290.74,229.07l-.7-1c2.86-2.17,3.53-3.72,2.29-5.53a3.62,3.62,0,0,0-5.18-.84,4.11,4.11,0,0,0-1.74,2.33,18.28,18.28,0,0,0-.93,4.64,32.72,32.72,0,0,1-.83,4.89,6.21,6.21,0,0,1-2.54,3.52,5.54,5.54,0,0,1-8.1-1.61,13.19,13.19,0,0,1-1-1.71,9.4,9.4,0,0,1-.85-2.93l5.12-3.53.76,1.1a17.47,17.47,0,0,0-2.8,2.33,3,3,0,0,0-.13,3.92,4,4,0,0,0,5.79.9,5.45,5.45,0,0,0,2-2.76,44.59,44.59,0,0,0,.81-4.56l.42-2.74a7.07,7.07,0,0,1,2.84-5.31,5.28,5.28,0,0,1,7.6,1.59,5.34,5.34,0,0,1,.82,1.66,12.32,12.32,0,0,1,.54,2.73Z" transform="translate(-64.87 -162)" style="fill:#2a4053"/><path d="M118.74,385.17l4.5,3.21a.46.46,0,1,1-.54.75l-4.79-3.41a.61.61,0,0,1-.17-.88l4.45-6.26a.62.62,0,0,1,.88-.12l4.81,3.43a.45.45,0,0,1-.53.72l-4.51-3.21L121,382l4.29,3c.45.33,0,1.07-.52.73l-4.29-3.05Z" transform="translate(-64.87 -162)" style="fill:#2a4053"/><path d="M131.44,394.15a5.34,5.34,0,0,1-2.07-.64,4.61,4.61,0,0,1-1.49-6.39,4.45,4.45,0,0,1,5.53-1.9,4.63,4.63,0,0,1,2.9,3.29c.12.62-.82.73-.94.17a3.6,3.6,0,0,0-2.31-2.56,3.31,3.31,0,0,0-4.32,1.52,3.55,3.55,0,0,0,2.75,5.53A3.49,3.49,0,0,0,133,393c.52-.24,1,.64.41.9A4.07,4.07,0,0,1,131.44,394.15Z" transform="translate(-64.87 -162)" style="fill:#2a4053"/><path d="M137,392.39a4.37,4.37,0,0,1,5.24-2.41,5.89,5.89,0,0,1,1.34.63,4.44,4.44,0,0,1,1.56,5.63,4.51,4.51,0,0,1-6.08,2.39A4.44,4.44,0,0,1,137,392.39Zm.93.49A3.46,3.46,0,1,0,143,391.4a4.77,4.77,0,0,0-1.1-.52A3.32,3.32,0,0,0,137.88,392.88Z" transform="translate(-64.87 -162)" style="fill:#2a4053"/><path d="M147,401.92a.47.47,0,0,1-.32-.67l2.77-7.55a.52.52,0,0,1,1,.36l-2.64,7.16,4.92,1.81a.46.46,0,1,1-.32.86Z" transform="translate(-64.87 -162)" style="fill:#2a4053"/><path d="M156.73,404.3l5.34,1.47a.46.46,0,1,1-.25.89l-5.68-1.57a.61.61,0,0,1-.46-.76l2-7.41a.59.59,0,0,1,.78-.41l5.69,1.57a.45.45,0,0,1-.25.86l-5.33-1.47-.84,3,5.08,1.41a.45.45,0,0,1-.24.86l-5.08-1.4Z" transform="translate(-64.87 -162)" style="fill:#2a4053"/><path d="M170.87,408.55a.64.64,0,0,1-.55-.69l1.06-7.64a.64.64,0,0,1,.72-.5l3,.43A4.46,4.46,0,0,1,173.9,409Zm.49-.86,2.66.38c2.08.29,3.37-1.33,3.61-3.08a3.26,3.26,0,0,0-2.63-4l-2.66-.37Z" transform="translate(-64.87 -162)" style="fill:#2a4053"/><path d="M181.79,402.75a.46.46,0,1,1-.8-.44l.69-1.29a.48.48,0,1,1,.84.47Z" transform="translate(-64.87 -162)" style="fill:#2a4053"/><path d="M184.11,405.47a4.36,4.36,0,0,1,3.79-4.34,5.62,5.62,0,0,1,1.48,0,4.61,4.61,0,1,1-5.27,4.32Zm1,.06a3.47,3.47,0,1,0,4.09-3.44,4.56,4.56,0,0,0-1.22,0A3.33,3.33,0,0,0,185.15,405.53Z" transform="translate(-64.87 -162)" style="fill:#2a4053"/><path d="M196.72,407.89c.45,1.13,2,1.27,3.14,1.19s3-.59,2.9-2c-.09-1.21-1.57-1.2-3.11-1.22-1.94,0-4,0-4.17-2.12-.14-1.84,1.92-2.82,3.63-2.95,1.46-.11,3.32.11,4,1.66.25.54-.68.86-.92.4-.5-1-2-1.1-3-1s-2.73.58-2.63,1.86,1.49,1.23,3.12,1.24c1.93,0,4,0,4.14,2.07s-2.18,3-3.9,3.09c-1.43.11-3.64-.22-4.22-1.86C195.49,407.62,196.57,407.32,196.72,407.89Z" transform="translate(-64.87 -162)" style="fill:#2a4053"/><path d="M211.92,399.4a.49.49,0,1,1,.15,1l-3.09.48c.39,2.49.8,5,1.18,7.51a.51.51,0,0,1-.45.59.49.49,0,0,1-.57-.43L208,401l-3.07.48a.49.49,0,1,1-.15-1Z" transform="translate(-64.87 -162)" style="fill:#2a4053"/><path d="M217.26,406.45l5.38-1.29a.46.46,0,1,1,.22.9l-5.73,1.37a.61.61,0,0,1-.78-.44l-1.79-7.48a.6.6,0,0,1,.48-.73l5.75-1.39a.45.45,0,0,1,.19.88l-5.37,1.29.73,3.07,5.12-1.24a.45.45,0,0,1,.21.88l-5.12,1.23Z" transform="translate(-64.87 -162)" style="fill:#2a4053"/><path d="M224.74,400.8a4.38,4.38,0,0,1,2.09-5.39,6.11,6.11,0,0,1,1.4-.48,4.46,4.46,0,0,1,5,3,4.51,4.51,0,0,1-2.7,5.95A4.45,4.45,0,0,1,224.74,400.8Zm1-.3a3.47,3.47,0,1,0,2.66-4.64,4.89,4.89,0,0,0-1.15.4A3.3,3.3,0,0,0,225.75,400.5Z" transform="translate(-64.87 -162)" style="fill:#2a4053"/><path d="M237.94,398.07l.93,2.06a.51.51,0,0,1-.92.42l-3.3-7.36a.5.5,0,0,1,.27-.66l2.77-1.24a3.23,3.23,0,0,1,4.57,1.48c.68,1.53.2,3.27-2,4.27Zm-.37-.83,2.29-1c1.7-.76,1.95-2.07,1.49-3a2.4,2.4,0,0,0-3.27-1.07l-2.34,1.05Z" transform="translate(-64.87 -162)" style="fill:#2a4053"/><path d="M246.59,394.31l.08,2.48c0,.58-.95.7-1,.09l-.31-9.33a.51.51,0,0,1,.79-.44l7.69,5.22c.61.35-.13,1.16-.62.81l-2-1.37Zm-.25-5.91.2,4.93,3.86-2.13Z" transform="translate(-64.87 -162)" style="fill:#2a4053"/><path d="M256.2,380.83a.48.48,0,1,1,.53.8l-2.61,1.72c1.39,2.1,2.81,4.23,4.19,6.34a.51.51,0,0,1-.16.72.5.5,0,0,1-.71-.15l-4.17-6.35-2.6,1.71a.48.48,0,1,1-.53-.81Z" transform="translate(-64.87 -162)" style="fill:#2a4053"/><path d="M261.62,382l4-3.19-2.37-3a.51.51,0,0,1,.81-.63l5,6.41a.51.51,0,1,1-.8.63l-2.14-2.71-4,3.19,2.15,2.71c.45.57-.4,1.13-.8.63l-5.05-6.41a.51.51,0,0,1,.79-.63Z" transform="translate(-64.87 -162)" style="fill:#2a4053"/><path d="M266.37,373a.53.53,0,0,1,.78-.71l5.6,6.24c.43.48-.33,1.2-.78.7Z" transform="translate(-64.87 -162)" style="fill:#2a4053"/><path d="M275.66,375l3.88-3.94a.46.46,0,1,1,.65.65l-4.13,4.2a.61.61,0,0,1-.89,0l-5.48-5.39a.6.6,0,0,1,0-.88l4.14-4.22a.45.45,0,0,1,.63.64L270.61,370l2.25,2.21,3.68-3.75c.4-.4,1.06.21.64.63l-3.69,3.75Z" transform="translate(-64.87 -162)" style="fill:#2a4053"/><path d="M132,369.09a.24.24,0,1,1,.4.25l-4.2,6.68c-.16.25-.56,0-.4-.25Z" transform="translate(-64.87 -162)" style="fill:#2a4053"/><path d="M140.41,374a.22.22,0,1,1,.39.21L137.05,381c-.14.27-.4.14-.44-.13l-1.44-9.18-3.49,6.41a.22.22,0,1,1-.38-.21l3.74-6.86c.15-.28.41-.19.46.11l1.43,9.17Z" transform="translate(-64.87 -162)" style="fill:#2a4053"/><path d="M140.81,381.12c-.15,1.11,1,2.07,1.89,2.55a4,4,0,0,0,.54.28c1.18.52,3.18.92,3.83-.55,1.2-2.74-6.16-3-4.75-6.26.52-1.18,1.93-1.25,3-1a6.36,6.36,0,0,1,1,.35c1.14.5,2.67,1.49,2.57,2.93,0,.33-.41.25-.39,0,.09-1.3-1.32-2.1-2.33-2.55l-.29-.11c-.88-.32-2.27-.52-3,.25a1,1,0,0,0-.26.37c-1.2,2.72,6.13,3.11,4.76,6.23-.78,1.75-2.94,1.36-4.38.73-1.21-.54-2.91-1.68-2.68-3.23A.2.2,0,1,1,140.81,381.12Z" transform="translate(-64.87 -162)" style="fill:#2a4053"/><path d="M157.77,380.9c.29.11.16.47-.13.37l-3.18-1.12-2.54,7.27a.24.24,0,0,1-.3.16.24.24,0,0,1-.13-.31L154,380l-3.16-1.12c-.3-.1-.17-.47.13-.36Z" transform="translate(-64.87 -162)" style="fill:#2a4053"/><path d="M160,381.69a.23.23,0,1,1,.44.13l-2.2,7.57a.23.23,0,0,1-.45-.13Z" transform="translate(-64.87 -162)" style="fill:#2a4053"/><path d="M169.56,383.93a.2.2,0,1,1-.09.38l-3.28-.76-1.74,7.5a.24.24,0,0,1-.28.19A.23.23,0,0,1,164,391l1.74-7.5-3.26-.76c-.31-.07-.22-.45.09-.38Z" transform="translate(-64.87 -162)" style="fill:#2a4053"/><path d="M178.7,385.46a.21.21,0,1,1,.42.05l-.64,4.49c-.7,4.91-8.13,3.85-7.42-1.06.22-1.55.41-2.94.64-4.5a.21.21,0,1,1,.41.08l-.64,4.47c-.62,4.36,6,5.3,6.59.95Z" transform="translate(-64.87 -162)" style="fill:#2a4053"/><path d="M188.44,386c.31,0,.29.4,0,.39l-3.36-.19-.41,7.68a.23.23,0,0,1-.25.23.22.22,0,0,1-.21-.25l.43-7.69-3.35-.18c-.31,0-.29-.41,0-.39Z" transform="translate(-64.87 -162)" style="fill:#2a4053"/><path d="M196,393.79l5.73-.36a.21.21,0,0,1,0,.42l-5.82.36a.35.35,0,0,1-.37-.33l-.47-7.57a.34.34,0,0,1,.33-.36l5.83-.36a.2.2,0,1,1,0,.39l-5.74.36.23,3.58,5.47-.34a.2.2,0,1,1,0,.39l-5.48.34Z" transform="translate(-64.87 -162)" style="fill:#2a4053"/><path d="M205,393.16a.31.31,0,0,1-.28.36.31.31,0,0,1-.37-.29.33.33,0,1,1,.65-.07Z" transform="translate(-64.87 -162)" style="fill:#2a4053"/><path d="M207.06,389a4.11,4.11,0,0,1,2.58-4.64,5.07,5.07,0,0,1,1.39-.24,4.29,4.29,0,1,1-4,4.88Zm.43-.06a3.7,3.7,0,1,0,3.55-4.4,4.44,4.44,0,0,0-1.26.22A3.68,3.68,0,0,0,207.49,388.91Z" transform="translate(-64.87 -162)" style="fill:#2a4053"/><path d="M223.3,386.75l.85,2.74a.21.21,0,0,1-.4.14l-2.34-7.53a.21.21,0,0,1,.15-.28l3.12-1c2.1-.65,3.53.2,4,1.6s-.19,2.56-2,3.26l3.39,1.85c.26.15.09.5-.17.36l-3.71-2.07Zm-.11-.36,2.94-.91c1.93-.6,2.47-1.78,2.1-2.9s-1.71-1.88-3.41-1.35l-2.94.91Z" transform="translate(-64.87 -162)" style="fill:#2a4053"/><path d="M233.54,386.13l5.33-2.15a.21.21,0,0,1,.15.39l-5.4,2.17a.35.35,0,0,1-.46-.19l-2.83-7a.34.34,0,0,1,.2-.45l5.41-2.18a.2.2,0,1,1,.14.37l-5.34,2.14,1.35,3.33,5.09-2a.2.2,0,1,1,.14.37l-5.09,2Z" transform="translate(-64.87 -162)" style="fill:#2a4053"/><path d="M244.05,373a.22.22,0,1,1,.4-.2l3.52,7c.14.28-.12.41-.36.3l-8.37-4,3.28,6.51a.22.22,0,1,1-.38.2l-3.52-7c-.14-.29.08-.45.35-.32l8.36,4Z" transform="translate(-64.87 -162)" style="fill:#2a4053"/><path d="M250.7,375.82l.23,2.57a.22.22,0,0,1-.43,0l-.78-9.11a.22.22,0,0,1,.1-.2.2.2,0,0,1,.22,0l7.82,4.74a.22.22,0,0,1-.21.38l-2.2-1.35Zm-.54-6.18.5,5.75,4.41-2.73Z" transform="translate(-64.87 -162)" style="fill:#2a4053"/><path d="M258.86,369.68l1.71,2.3c.17.23-.17.49-.33.27l-4.72-6.32a.21.21,0,0,1,0-.31l2.62-2c1.76-1.31,3.4-1,4.27.19s.68,2.47-.75,3.72l3.81.61c.3.06.25.45,0,.41l-4.19-.73Zm-.23-.3,2.47-1.84c1.61-1.2,1.74-2.5,1-3.43s-2.24-1.2-3.67-.13L256,365.82Z" transform="translate(-64.87 -162)" style="fill:#2a4053"/><path d="M268.44,366.13a.35.35,0,0,1-.49,0l-5.05-5.67a.35.35,0,0,1,0-.48l2.25-2c3.8-3.39,9.3,2.78,5.5,6.17Zm-.21-.35,2.19-1.95c3.38-3-1.59-8.59-5-5.58l-2.19,1.95Z" transform="translate(-64.87 -162)" style="fill:#2a4053"/><circle cx="191.2" cy="288.33" r="125.83" transform="matrix(0.02, -1, 1, 0.02, -166.09, 311.22)" style="fill:none;stroke:#2a4053;stroke-miterlimit:10"/><path d="M283.53,288.33a92.43,92.43,0,1,1-92.43-92.42A92.43,92.43,0,0,1,283.53,288.33Z" transform="translate(-64.87 -162)" style="fill:none;stroke:#2a4053;stroke-miterlimit:10"/><path d="M191.2,380.93a92.72,92.72,0,1,1,0-185.43" transform="translate(-64.87 -162)" style="fill:#2a4053"/><path d="M211.93,291.49c3.51-3.42,2.85-7.19,2.21-11-1.77-10.6,2.32-16.93,12.83-19.46,5.57-1.35,11.29-2,16.87-3.24,8.39-1.9,13.26-8,13.13-16.37-.08-5.61-2.2-10.35-7.57-12.78-5.56-2.51-11.18-2.45-16.24,1.34-1.45,1.09-3.82,2.11-1.78,5.08,1.59,2.29,2.16,5.34,6,4.24,1.83-.53,3.61-1.24,5.44-1.74,2.17-.6,4.2-.71,5.72,1.51a5.92,5.92,0,0,1,.64,6.05c-1.53,3.8-4.76,5.27-8.32,6a108.87,108.87,0,0,1-12.69,2c-15.07,1.44-23.31,16.13-19.56,29.84C209.3,285.75,209.62,288.66,211.93,291.49Z" transform="translate(-64.87 -162)" style="fill:#2a4053;stroke:#fff;stroke-miterlimit:10;stroke-width:0.5px;fill-rule:evenodd"/><path d="M218.78,337.4c3.54-2.4,7.38-4.45,10.57-7.25,7.07-6.21,6.42-19.58-.87-25.59-2.29-1.88-3.55-.95-4,1.42a13.13,13.13,0,0,0,.93,7.72c3,6.69,3.2,9.17-5.22,15.54-3.81,2.88-7.89,5.39-11.62,8.35-7.78,6.17-8.06,17.53,3.82,23.15-3.11-5.06-6.53-9-4-14.36,2.22-4.75,6.06-7.18,10.54-9.09Z" transform="translate(-64.87 -162)" style="fill:#2a4053;stroke:#fff;stroke-miterlimit:10;stroke-width:0.5px;fill-rule:evenodd"/><path d="M239.06,231.59c0,.49-.89.89-2,.89s-2-.4-2-.89.89-.89,2-.89S239.06,231.1,239.06,231.59Z" transform="translate(-64.87 -162)" style="fill:#2a4053"/><path d="M224.46,265.17a1.41,1.41,0,0,0-1.33-.71c-.24,0-.47,0-.45.35a4.27,4.27,0,0,0-3.3-1.08l1.34-1.33c-.59-.07-.66-.49-.42-1,1.16-.54,2.28.8,3.44.09v-.77c-.76-.12-1.27-.87-2.12-.83-.27,0-.68.18-.71-.35a.9.9,0,0,0,0-.17,2.27,2.27,0,0,0-2.28.13s-.07,0-.11-.05c-.48-.82-1.11-1.6-.78-2.53a3.13,3.13,0,0,1,2.18-.63c-.35-.47-.81-.14-1-.32-.4-.33-.94.1-1.2-.22-.65-.79-1.36-.47-2.15-.17v-1.32c-.48.15-.89.64-1.36.12.14-.31.65,0,.72-.58.1-.75.32-.87.95-.51a1.28,1.28,0,0,0,1.14.18c.67-.45,1.44-.23,2.08-.36.18-.62-.22-.76-.56-1.07-.13.35-.16,1-.52.71-.8-.72-1,.06-1.29.43a2.75,2.75,0,0,0-2.29-.46c-.21,0-.27-.24-.37-.22-.85.2-.87-.73-1.35-1a1.91,1.91,0,0,1-1-1.34,5.34,5.34,0,0,1,3.25-.6c.2,0,.31-.12.3-.34s0-.28-.37-.21c-1.1.23-2.23.61-3.25-.35-.29-.28-.87-.26-1.31-.38-.18.54-1,.36-1.11.93-.38-.06-.55-.34-.71-.65-.27-.53.42-.78.35-1.37a1.23,1.23,0,0,1-1-.7c.27-.2.71,0,.67-.47a18.62,18.62,0,0,0,2.48,0c.85-.11,1.58.78,2.45.25-.66-1.14-1.88-1.27-3-1.63-.28-.09-.59,0-.54-.45.11-1-.65-.52-1.07-.63,0-.45-.37-.46-.59-.27-.68.58-1.09.26-1.56-.33a5.36,5.36,0,0,1,4.12.65c.44.27.76.49,1.24.12-.38-.37-.77-.73-1.13-1.12-.21-.21-.45-.07-.66-.11-.38-.47-.32-1.24-1.07-1.43-.38-1.24-1.56-1-2.46-1.29,1.18-.09,2.32-.32,3.39.54.3.23.92.8,1.57.21a12.57,12.57,0,0,0-1.67-1.37,3.34,3.34,0,0,1-1.3-1.52c-.53-1-1.33-1.08-2.37-.47-.46,0-.37-.32-.29-.61,2.35-.18,2.9,0,4.7,1.29.14.1.23.3.38.36a.35.35,0,0,0,.47-.09c0-.09.1-.28.06-.32-.64-.59-.81-1.58-1.66-2-.11.32-.42.28-.74.5s-.54-.08-.64-.22c-.51-.74.18-1.11.55-1.55a2.8,2.8,0,0,0-.53-.51c-.13-.08-.34,0-.52,0,0-.34-.22-.34-.45-.35a5.59,5.59,0,0,1-1.85-.16c2.8-.36,2.46-.44,4.7,1,.25.16.54.12.74.35.5.56.45-.32.74-.29a9,9,0,0,1-1.37-1.53,2.21,2.21,0,0,0-1.3-1.21.69.69,0,0,1-.5-.65c0-.24-.11-.36-.36-.35.23-.44.67-.84,0-1.3a4.47,4.47,0,0,1-.78-.86c-.63.06-1.08.74-1.63.24-.2-.5.21-.73.46-.86a1.24,1.24,0,0,1,1.17,0c.48.33,1.05.46,1.31,1.19.14.42,1.27-.14,1.63.68l-1.51.75c1.6.46,2.4-.6,3.28-1.47-.33-.23-.44-.78-1.12-.36a1.54,1.54,0,0,1-2.15-.42,2,2,0,0,0-1.78-.81.87.87,0,0,1-1-.59c-.37-1.09-1.25-1.09-2.16-1.21-.48-.07-.7.37-1.1.37s-.94,0-1.41,0-.85.69-.66,1c.4.68.79,1.43,1.76,1.44V229c-.08.55.19,1,.66,1,.65,0,1.11.57,1.73.43a2.21,2.21,0,0,1-1.19,2.75c-1-.79-1.17-2-1.38-3.18-.07,1.55-1.22,2.84-.89,4.43-.54.25-.18.88-.47,1.21s.19.8-.2,1.23.41.73.33,1.24c-.3,2,.5,3.88.36,5.85,0,.25-.14.63.34.63a21,21,0,0,0,.55,2.84h.16c0,.4-.07.82.56.72a2.9,2.9,0,0,1,.51,0c-.07.75-.87.06-1.06.52s.53.59.37,1.11c-.23.68.28,1.25.45,1.89.36,1.36,1.48,2.43,1.37,3.91.31,0,.35-.39.64-.32,0,.68-.08,1.33.59,1.91a1.66,1.66,0,0,1,.49,1.54c-.06.22,0,.48.35.45a1.24,1.24,0,0,1,.15,1c.75,0,.63.76.91,1.17s.65,1,.06,1.49c-.09.08.15.2.32.21.37,0,.34.18.12.39a.37.37,0,0,0,0,.59c.17.13.23-.18.37-.21a.71.71,0,0,1,.46,0c.27.2-.08.24-.13.36a1,1,0,0,0,0,1,2,2,0,0,1,.24,1.89c-.06.13.12.31.34.27-.17.3.54.34.21.67s-.31.46-.05.74c.26-.61.9-.3,1.35-.54.76-.4,1.76-.06,2.6-.5.23-.12.57,0,.86,0a.84.84,0,0,0,.65.7c.41.1.4-.24.45-.53,0-.08.29-.18.44-.16.75.13,1.32-.55,2.11-.4.38.08.21-.42.26-.67.57.16.79-.35,1.15-.6s.53-1,1.22-.78c.16.46.11,1,.47,1.38-.59-.12-.9.39-1.31.48-.07.44,1-.13.37.64-.28.35-.15.8-.11,1.19.08.76-.09,1-.7.87a5,5,0,0,1-1.17-.61c-.24-.13-.54-.16-.58.07-.15.84-.87.71-1.39.9s-.94.39-.7,1.13c.53-.45.88-1.12,1.61-.65a.42.42,0,0,1-.15.63,5.48,5.48,0,0,1-3.1,1,.69.69,0,0,1-.6-.22c-.7-.78-.73-.75-1.23-.85-.16,0-.51,0-.45-.11.66-1-.57-.74-.79-1.17.88-.08,1.06-.82,1.36-1.46-.79-.38-1.32.5-2,.31-.17.64.55,1,.32,1.55s.81,1,0,1.47a4.47,4.47,0,0,1,.42,1.78s.19.08.29.12a1.93,1.93,0,0,1,.36,1.36c0,.24,0,.44.35.41a2.57,2.57,0,0,1-.34,1.73c-.12.14,0,.43.34.4v1c0,.24.05.44.35.47a2,2,0,0,0,.65,1.72,2.14,2.14,0,0,0,1.79-1.72c-.82,0-1.63,0-2.44-.05,0-.36.22-.36.46-.36,1.12,0,2.24,0,3.36,0a15.09,15.09,0,0,0,3-.63c-.49.91.7.92.76,1.58,0,.19.4.17.45.09.4-.64,1.14-.09,1.58-.47-.07-.23-.4-.28-.34-.57.22,0,.48.12.65-.12.38-.52.9-.54,1.49-.65a1.83,1.83,0,0,1,1.11,0c.41.16.91-.12,1.32.13.07.24,0,.63-.13.55-1.11-.86-1.47.09-1.95.76-.29.05-.35-.26-.55-.34-.17,1.22-.17,1.23.75,2.13.19.18,0,.25,0,.37,0,.29.07.34.26.34.49,0,.13-.77.5-.64s.51.46.85.09c0,0,0-.12,0-.18.44.16.84.65,1.38.22a2.69,2.69,0,0,0-.44-2.26c-.3-.32-.18-.64-.24-1a1.45,1.45,0,0,0-1.22-1.23,13.62,13.62,0,0,1-2.19-.67c-.61-.14-.94-.16-.87-.89,0-.35-.52-.12-.66-.38.07-.39.75,0,.68-.56,1.09-.2.51-1.22.82-1.8.26.13.32.43.61.38.48.43,1,.85,1.46,1.29a.72.72,0,0,0,.81.1c.33-.21.4-.55-.14-.68-.18-.29.48-.3.16-.81s-.81-1.36-1.23-2-.64-1.12-1.42-1.07c-.05-.21.08-.44-.11-.65a5.2,5.2,0,0,0-2-1.48v-1.06c.54-.34,1.06-.64,1.62,0,.08.08.34,0,.51,0,0,.06,0,.16,0,.17a13.16,13.16,0,0,1,2,.59c.2-.44.28-.8,0-1.06S225,265.38,224.46,265.17Z" transform="translate(-64.87 -162)" style="fill:#2a4053;fill-rule:evenodd"/><path d="M224.8,362.65c0-.8.2-1.61-.33-2.34-.15-.21-.24-.25-.56,0-.31-.11,0-.59-.45-.66,0,.5-.23,1,.16,1.45a.73.73,0,0,1,0,1c-.17.21-.35.5-.71.41s-.11-.54-.39-.69c-1.33.82-1.42.89-1.23,2.06.07.4.28.73,0,1.13-.12.16.08.34.27.33s.73.15.76-.2c.13-1.48,1.32-1.81,2.17-4.88.41-.76.74-1.36,1-2a.35.35,0,0,0-.09-.3c-.21-.15-.23.17-.37.18-.4.05-.17-.28-.25-.44a.37.37,0,0,0-.44-.18c-.17,0-.37.19-.26.34C224.62,358.49,224.42,359.25,224.8,362.65Z" transform="translate(-64.87 -162)" style="fill:#2a4053;fill-rule:evenodd"/><path d="M222.28,343.22c-.45-.23-1-.13-1.37-.44.12-.37.62,0,.67-.43-.26-.06-.32-.75-.76-.23-.36-.32-.94.21-1.25-.35s-.79.51-1.28-.13a1.82,1.82,0,0,0-1.72-.5c-.16,0-.32-.12-.28-.35.55.06.38-.79.52-.66.64.58,1.44,0,2,.34,1,.59,1.49-.05,2.22-.63a2.71,2.71,0,0,0-1.58.08c-1.53.55-2.66,0-3.55-1.5a2.87,2.87,0,0,1,2,0c.87.48,1.71.12,2.54.26a.77.77,0,0,0,.8-.56,1.86,1.86,0,0,0-1.93-2.61,9.38,9.38,0,0,1-2.31-.38,2.94,2.94,0,0,1-.68-2.75c1-.37,1.79.18,2.56.36s1.35,1.16,2,1.79l.48-.41c.12-.12.28-.22.23-.44a3.62,3.62,0,0,1,.73-2.47c-.23-.5-.55-.78-1.09-.69-.8.18-1.45-.5-2.28-.41-.39.05-.84-.42-1.27-.66a2.71,2.71,0,0,1-.75-2c-.78-.74,0-.89.4-1.41a3.51,3.51,0,0,0,2.26,1.32,3.47,3.47,0,0,1,1.7.94,1.62,1.62,0,0,0,1.74.32,8.24,8.24,0,0,0-.17-2.08c-.31.38-.16.69-.21,1s.13.59-.14.84c-1,.2-.35-.75-.71-1s-1.09-.33-1-1.09c-.49.28,0,.86-.45,1.06a3.39,3.39,0,0,0-.64-.62c-.16-.09-.31.47-.63.08s-.58-.26-.86-.49c-.64-.55-1.07-.5-1.8.07-.23.18-.41.41-.72.21.1-.78.7-1.22,1.17-1.76a.75.75,0,0,0-.09-1.08c-.38-.42-.68-.35-1,.06l-.74-.69c-.37.26,0,.7-.26,1-.49.23-.82,0-1.22-.31-1-.79-1.7-.71-2.91.18a5.31,5.31,0,0,1,.73,1.57,5.07,5.07,0,0,1-3.64-.54c-.34-.24-.91.25-1-.38-.07-.38-.08-.53-.47-.19a.73.73,0,0,1-.95,0c0-.05.06-.12.09-.13a1.23,1.23,0,0,0,.94-.63c-.45-.25-.27-.72-.39-1.08,0-.07-.24-.16-.28-.13-.67.5-1.14-.09-1.67-.31a5.68,5.68,0,0,0-.55.83c-.32.54-.78,1.07-.6,1.68.13.41.26.65-.14.92a.55.55,0,0,0-.25.6,2.85,2.85,0,0,1-.87,2.31,2.74,2.74,0,0,0-.55,2.24c.87.47-.31,1.11.12,1.6s.12,1.24.22,1.86a1.32,1.32,0,0,1-.11.66c-.47,1.25-1,2.53.35,3.62.22.19.15.45.12.65a4.11,4.11,0,0,0,1.43,3.57c0,.76.05,1.53,0,2.29a1.27,1.27,0,0,0,.64,1.32,1.25,1.25,0,0,1,.83,1.41c0,.3.29.6.68.66a.27.27,0,0,1,.34.27c0,.24,0,.46.37.44-.27,1.12.48,2.11.38,3.22,0,.32.26.91.5,1,.43.11.75.46,1.25.46.75,0,0,1,.68,1.18.94.24,1.32,1.24,2.16,1.63.19,0,.43,0,.21.32a2.93,2.93,0,0,0-.21.39c.05.21-.06.43.11.66a4.88,4.88,0,0,0,2.62,1.76,7.55,7.55,0,0,1,3.39,2.07,3.67,3.67,0,0,1,1,2.25,3.23,3.23,0,0,1-.2,1.55,5.32,5.32,0,0,1,.64.81,1,1,0,0,1,.13-.24.78.78,0,0,0,.15-.48v-1.59c0-.71,1.16-.31,1.07-1.11.28-.05.66.16.72-.39a2.4,2.4,0,0,1,.34-.68c.22-.05.51.14.65-.13a2.47,2.47,0,0,0,.37-2.11,1.85,1.85,0,0,1-.27-1.45c.25-.55-.64-.85-.15-1.37.2-.21-.07-.25-.21-.26a.43.43,0,0,0-.31.1c-.26.4.14.93-.22,1.29-1.08-1-.14-2.56-.92-3.68.5-.37.34-.68,0-1.15a1.31,1.31,0,0,1,0-1.19.93.93,0,0,0-.13-1.27c-.82-.64-.6-1.41-.6-2.15a.89.89,0,0,1,1,.12c1-.52-.31-.54.26-1h2.24a7.88,7.88,0,0,1,.32-2.91C223.24,344,223,343.56,222.28,343.22Z" transform="translate(-64.87 -162)" style="fill:#2a4053;fill-rule:evenodd"/><path d="M208.84,312.39c-.66.21-.84-.48-1.29-.68-.14.25-.53.33-.48.69.06.56-.64.15-.68.52s.3.18.46.17a1.44,1.44,0,0,1,.62.22,14.42,14.42,0,0,0,5.17,1.21c.65,0,1.31,0,2,0,.46,0,.23.45-2.52,1.17,1.08-.38,1.57.44,2.36.25.23-.06.46,0,.45-.37a1.44,1.44,0,0,0-.3-.48c-.27-.35-.84-.33-.93-.19-.33.5-.9.15,1.22.32.34,0,.38-.21.36-.45a2.91,2.91,0,0,1,.55-2h.87c.71.84,0,1.95.61,2.71-.45.36-1.15-.21-1.29.38-.21.92.84.16,1.12.68.19.35.91.27,1.12.1.38-.32.53-.23.78.07s-.38.38-.21.68c-.76.24-.93.69-.33,1.42a7.06,7.06,0,0,1-2.54-.06,9.78,9.78,0,0,0-2.87-.3,2,2,0,0,0-1.69.71h2.18a.28.28,0,0,1,.28.35c-.69-.06-1.27.68-1.95.34-1.06-.53-2.25-.45-3.33-.83,0-.27,0-.77-.13-.79a1.27,1.27,0,0,1-1-1.18c-.14-.67-1.2-.28-1.1-1.07.45,0,.25-.47.44-.61s.37.4.68.23c.15-.08.27-.21.42-.28.43-.2.87-.38,1.35-.59-.69-.74-1.76-.55-2.65-1.58.37,1.23-.38,1.93-.24,2.81-.51.1-.67.62-1.07.88.33.34.66.66,1,1,.08.08,0,.17-.08.25-.58.12-.7-.5-1.2-.71-.17.57.15,1.24-.55,1.78h1.11c.29,0,.59,0,.88,0s.31.13.34.4H204.3v2.12a9.52,9.52,0,0,0,2.4-2.17c1.5.32,2.89,1,4.45,1.07.36.6,1.22.19,1.59.85.23.4.68.31,1,0-.14-.26-.65-.45-.22-.84s.18-.75.24-1.13c.59.12.12-.85.87-.68a2.74,2.74,0,0,1,1.21,1.9c.23.46-1.2-.16-.37.69.3.32-.18.91.48,1.46l.45-1c.56,1.06.71,2.28,2.16,2.27a.72.72,0,0,1,.52.64c0,.29.2.41.37.55s.61.36.7-.2c.05-.37.15-.25.41-.12a2.3,2.3,0,0,0,1.87,0c-1.65-.45-3.33-.41-4.32-2.52a6.42,6.42,0,0,0,3.1.57c1.07,1.17,1.63,1.27,2.56.46.18-.16.43-.45.27-.56-.55-.38-.15-1.11-.69-1.51a4.54,4.54,0,0,0-2.85-1.23.68.68,0,0,0-.48-.64c-1.12-.36-1.3-1.21-1.29-2.2a4.36,4.36,0,0,1,2.69,1.48,1.87,1.87,0,0,0,1.85.65.87.87,0,0,0,.77-1.09c-.35-1-.67-2.15-2.12-2.11a.85.85,0,0,1-.71-.8.27.27,0,0,0-.35-.26c.27-.73-.75-1.34-.25-2a24.17,24.17,0,0,1,3.29,1.42c.62.38.6-.11.83-.3-.85-.21-1.24-1-2-1.57h-1.56c.31-1-.65-1.34-1-2,.43-.3.34-1.05,1.17-1-.3-.27-.53-.44-.73-.65a.35.35,0,0,1,.05-.58c.11-.07.32,0,.47.05.67.21.25,1,.61,1.33.51-.59,0-1.2-.09-2,1.43.93,2.34,2.5,4.08,1.91a3.17,3.17,0,0,0-1.37-3.69,5.19,5.19,0,0,1-1.25-2,2.75,2.75,0,0,0,.86,2.36,13.26,13.26,0,0,1,1.13,1.12c.58.62.54,1.05-.18,2-.42-.84-1.65-1-1.68-2.1-.84-.3-1-1.26-1.34-1.46-.36-1.09.75-1.2.75-2-.22-.17-.47-.52-.67-.49-1.24.18-.82-.9-1.09-1.42a.49.49,0,0,1,.38-.77,1.79,1.79,0,0,0,.9-.77c.39-.56.53.24.81.07.33,1.16,1.14,1.9,2.7,2.5.48-.82-.07-1.44-.4-2.12-.25.56-.38.66-.48.52-.3-.38-.48.41-.78,0a2.17,2.17,0,0,0-1-.88c.17-.49-.47-.77-.31-1.38.8.25.86-1,1.64-.81v-3.14a7,7,0,0,0-.26,2.4c0,.6-.4.42-.71.45-.12-.25-.36-.51-.34-.74a3.86,3.86,0,0,0-.67-2c.25-.22.57,0,.83-.12a.36.36,0,0,0,.17-.45c0-.16-.15-.32-.33-.09s-.2.16-.38,0c-.66-.44-1.34-.84-2.12-.2-.11.08-.4-.08-.28-.22.48-.56-.06-.64-.25-.42-.4.43-.56,0-.82-.06s-.39,0-.39.2.19.23.29.35c-.62.66-1.12-.48-1.75-.1.22.33.4.62.58.91.34-.59.87.53,1.26-.15.13-.23.61.35.85-.12.76.82,1.75,1.46,2,2.86-.81-.15-1.49.15-2.16-.21-.34-.18-.26-.63-.51-.84-.49-.42.51-.63,0-1.1-1.11-.35-2.41,1.06-3.61,0a6.57,6.57,0,0,1-3.57-1L211,295.87c.67.57,1.05,1.2.45,2.07-.12.16,0,.45-.1.66-.37,1.21-.33,1.45.62,2.06.17.11.47,0,.45.37a1.47,1.47,0,0,1-1.59-.71c-.35.31-.68.57-.54,1.06-.07.13-.13.27-.21.39-.23.31,0,.3.21.32a4.49,4.49,0,0,1-1,2.9c-.17.22-.06.44-.11.65-.34,0-.35.22-.35.46a1.34,1.34,0,0,1-.45,1.29,9.28,9.28,0,0,1,1.78.33c1.31.41,2.63,1,4.09.77.07,0,.16.12.24.19-.54.26-.54.28-.41,1s.22.77.43.59c.42-.36.95-.26,1.4-.48a1.67,1.67,0,0,1,2.34.53c.58-.77,1.19-1,1.93-.58.07.53-.32.65-.55.88-.24-.26-.53-.57-.83-.15s-.8,0-.73.69c.48.13.25.8.65,1.07-.52.95-1.38.39-2.08.54.06-.74.86-.05,1-.54-.21-.28-.6-.18-.87-.47s-.53.3-.87.31-.49-.48-.92-.38c-.23,0-.45,0-.59.27s-.68.4-1,.64c.3.27.73,0,.73.52s-.2.37-.45.37h-2.11a4.42,4.42,0,0,1-1.71-.71c.22,0,.48.12.73-.2-.67-.29-.63-1.22-1.44-1.41.31,0,.23-.81.78-.3a.73.73,0,0,0,1.08-.11c.16-.18.35-.34.27-.6s-.37-.22-.59-.21a.49.49,0,0,1-.46-.17c.2-.39.84-.51.64-1.2-.73,0-1.33-.48-2.07-.68a9.14,9.14,0,0,1-.29,1.69,1.53,1.53,0,0,1-1.1,1.23C207.88,311.38,208.56,311.71,208.84,312.39Z" transform="translate(-64.87 -162)" style="fill:#2a4053;fill-rule:evenodd"/><path d="M220.2,282.21a1.48,1.48,0,0,1-.9,1,3.58,3.58,0,0,1-1.57,0c-.46,0-1,.23-1.36-.12a4.2,4.2,0,0,0-1.17-.75c.32-.24.6-.11.73-.35-.76-.64-1.81-.44-2.63-1a2.39,2.39,0,0,1-.76,1.16c-.65.52.48.72.23,1.22-.1.19-.08.43-.27.61s-.17.56,0,.57c.66,0,.56.43.56.82s0,1,0,1.42.17,1.07-.65,1.16c-.13,0,.06.56.1.53.66-.65.71,0,.9.39-.12,0-.27,0-.35,0a1.33,1.33,0,0,0-.59,1.68,2,2,0,0,1,.1,1.79c-.24.56-.23,1.18-.7,1.68.72.17,1.16.85,1.85.4.16-.3-.12-.71.25-1s.06-.27-.09-.33c-.57-.23-.7-.74-.93-1.42h1.12c.41,0,.85.08.8-.57.48-.11.83-.5,1.39-.52,1.19,0,2.44.34,3.59-.32.05,0,.22.06.27.14a.36.36,0,0,1,0,.33,2.86,2.86,0,0,1-1.43,1.12c.36.21.51.85,1,.39a.76.76,0,0,1,1.09-.06.53.53,0,0,0,.61.15c.33-.13.42-1,1-.32.37-.54.95-.27,1.44-.36.67-.12.67-.13,1.73,2.83-.26-.23-.15-.54-.14-.82,0-.67-.56-.88-.89-1.28-.47.89-1-.18-1.51,0a1.89,1.89,0,0,0,.05,1.38c.4-.26.53-.75,1-.72a5.75,5.75,0,0,0,3,3.13c.51-1.23-.51-1.73-1.15-2.4-.06.09-.16.18-.16.28s0,.32-1.08-1.71c.34,0,.32-.22.37-.45.14-.75-.8-.9-.85-1.59,0-.28-.66.1-.91-.24A2.6,2.6,0,0,0,224,289c.08-.3,0-.31.8-.68a4,4,0,0,0,0,.5c0,.18-.06.44.28.42,0-1.12,0-1.12-.64-1.71a3.29,3.29,0,0,1,1-2.21c0,.55.32.83.62,1.16a.88.88,0,0,0,1.26.17c-.67-1.54-.33-3.4-1.58-4.81-.55.48-1,1.21-1.85.38-.14-.15-.56,0-.85,0h-.36c0-.52.11-1.21-.5-1.35a2.76,2.76,0,0,0-2.75.58C219.64,281.87,219.83,282.14,220.2,282.21Z" transform="translate(-64.87 -162)" style="fill:#2a4053;fill-rule:evenodd"/><path d="M227.8,287.83c-.25.67-.47,1.23-.71,1.86-.32-.81-.54-1.59-1.49-1.71-.2.34.1.5.2.75.3.73.69,1.51,1.53,1.23s.72-1.13.68-1.86C228,288.05,227.94,288,227.8,287.83Z" transform="translate(-64.87 -162)" style="fill:#2a4053;fill-rule:evenodd"/><path d="M222,350.19c.46.5.43.49.37,1.32,0,.32-.16.7.2,1.05a5.51,5.51,0,0,1,.67-1.81c.19,0,.2.46.59.14-.2-.4-.39-.82-.62-1.29Z" transform="translate(-64.87 -162)" style="fill:#2a4053;fill-rule:evenodd"/><path d="M224.68,357.12c.06-.12.11-.18.1-.2-.46-.68-1-1.3-.35-2.22.22-.29-.29-.53-.54-.74-.3.64-.87,1.36-.35,2C223.86,356.33,223.89,357.18,224.68,357.12Z" transform="translate(-64.87 -162)" style="fill:#2a4053;fill-rule:evenodd"/><path d="M204.85,220.44c-.35.77-.62,1.53-1.64,1.56,0,0,0,.29,0,.5h1.67Z" transform="translate(-64.87 -162)" style="fill:#2a4053;fill-rule:evenodd"/><path d="M203.5,230.81c.06.49-.11.91.12,1.27.25.09.3-.41.51-.19.47.52.57-.1.74-.25s0-.4-.14-.6C204.43,230.64,204,230.69,203.5,230.81Z" transform="translate(-64.87 -162)" style="fill:#2a4053;fill-rule:evenodd"/><path d="M221.22,254.67a8.68,8.68,0,0,0-3.48.1c.62.06,1.26.38,1.75.36A6.11,6.11,0,0,0,221.22,254.67Z" transform="translate(-64.87 -162)" style="fill:#2a4053;fill-rule:evenodd"/><path d="M224.72,312.69c-.57-.34-.7-.68-1.14-.7-.21,0-.53-.36-.58-.77a.54.54,0,0,0-.77-.45C222.78,311.67,222.91,312.88,224.72,312.69Z" transform="translate(-64.87 -162)" style="fill:#2a4053;fill-rule:evenodd"/><path d="M217,335.11a9.38,9.38,0,0,0,2.31.38,1.86,1.86,0,0,1,1.93,2.61.77.77,0,0,1-.8.56c-.83-.14-1.67.22-2.54-.26a2.87,2.87,0,0,0-2,0c.89,1.54,2,2.05,3.55,1.5a2.71,2.71,0,0,1,1.58-.08c-.73.58-1.23,1.22-2.22.63-.55-.32-1.35.24-2-.34-.14-.13,0,.72-.52.66,0-1.05-.95-1.59-1.22-2.5-.28.41-1,.31-1,1,0,.15-.31.38-.5.43-.66.16-1.37-.22-2,.29-.17.14-.4-.24-.68-.3a3.61,3.61,0,0,0-2.74,0,3.1,3.1,0,0,1-1.59.39c-.82-.09-1.3.68-2,.71-1.07,0-.73,1.1-1.25,1.5-.08.06-.09.2-.13.3a4.11,4.11,0,0,1-1.43-3.57c0-.2.1-.46-.12-.65-1.35-1.09-.82-2.37-.35-3.62a1.32,1.32,0,0,0,.11-.66c-.1-.62.27-1.28-.22-1.86s.75-1.13-.12-1.6a2.74,2.74,0,0,1,.55-2.24,2.85,2.85,0,0,0,.87-2.31.55.55,0,0,1,.25-.6c.4-.27.27-.51.14-.92-.18-.61.28-1.14.6-1.68A5.68,5.68,0,0,1,204,322c.53.22,1,.81,1.67.31,0,0,.26.06.28.13.12.36-.06.83.39,1.08a1.23,1.23,0,0,1-.94.63s-.06.08-.09.13a.73.73,0,0,0,.95,0c.39-.34.4-.19.47.19.11.63.68.14,1,.38a5.07,5.07,0,0,0,3.64.54,5.31,5.31,0,0,0-.73-1.57c1.21-.89,1.89-1,2.91-.18.4.31.73.54,1.22.31.26-.27-.11-.71.26-1l.74.69c.31-.41.61-.48,1-.06a.75.75,0,0,1,.09,1.08c-.47.54-1.07,1-1.17,1.76.31.2.49,0,.72-.21.73-.57,1.16-.62,1.8-.07.28.23.65.25.86.49s.47-.17.63-.08a3.39,3.39,0,0,1,.64.62c.49-.2,0-.78.45-1.06,0,.76.65.77,1,1.09s-.28,1.24.71,1c.27-.25.09-.56.14-.84s-.1-.59.21-1a8.24,8.24,0,0,1,.17,2.08,1.62,1.62,0,0,1-1.74-.32,3.47,3.47,0,0,0-1.7-.94,3.51,3.51,0,0,1-2.26-1.32c-.35.52-1.18.67-.4,1.41a2.71,2.71,0,0,0,.75,2c-.7.07-1.32-.73-2.07-.23.07,1.14.07,1.16,1.05,1.29a1.26,1.26,0,0,1,.77.26c.26.22.16.55.37.73s.32-.47.61-.09a2.29,2.29,0,0,0,.62.62,12.25,12.25,0,0,0,2,1.21c.52-.53-.29-.88,0-1.22.36-.51.12-1,.21-1.5.54-.09.86.19,1.09.69a3.62,3.62,0,0,0-.73,2.47c0,.22-.11.32-.23.44l-.48.41c-.67-.63-1.25-1.6-2-1.79s-1.57-.73-2.56-.36a2.94,2.94,0,0,0,.68,2.75l-.72.36c.18-.46-.31-.7-.35-1.09s.14-.92-.11-1.36c-.45.05-.08.55-.54.69.12-.8-.39-.72-.93-.74s-.76.54-1.26.37a2.85,2.85,0,0,0-1-2.26.77.77,0,0,0-1-.18c-.25.17-.51.77-.41.92.45.62.08,1.26.22,1.87-.29-.15-.36.56-.84.12a2.67,2.67,0,0,0-1.92-.5c-.54,0-1.13.22-1.67-.26-.19-.18-.73.06-1-.09-.53-.29-1,.69-1.49,0-.17.16-.33.34-.51.5a.61.61,0,0,1-.24.15c-1.09.28-1.09.27-1.49.64-.11.4,1-.28.44.51s.17,1.63.21,2.45.87.06,1.09.55c0,.08.2.09.28.17a3.35,3.35,0,0,0,2.9.69,16.39,16.39,0,0,1,3.63-.35c-.48-.66-1.14-.05-1.48-.49.23-.73,1-.36,1.43-.79l1.18-1.32c.49.16.74.62,1.2.48s.69.21,1,.27c.73-1.1-.86-.9-.86-1.67a1.92,1.92,0,0,1,1.82.66c.58.64,1.1.39,1.65,0,0,.31.16.74-.45.72-.17,0-.27.15-.26.36s.11.35.3.33a1.11,1.11,0,0,1,1.05.46c.37.42.73,1,1.38.27.1-.11.35,0,.49.3a.64.64,0,0,0,1.09.17v-1.16c.48.29.79.21,1.05-.42-.7.25-1.16-.89-1.88-.07-.09.11-.16.1-.25,0-.36-.59-.93-.58-1.53-.59C216.83,335.8,217.05,335.37,217,335.11Zm-3.91-7.45c.05-.26-.17-.61.28-.71s.91-.4.76-.94-.33-1.42-1.19-1.57c-.45.29.09.95-.45,1.06-.36.08-.5.17-.47.54s0,.71,0,1.06.75,0,.7.56c-.65,0-1.1.41-1.63.67-.52-.32-.48-1.42-1.5-1-.26.1-.4-.16-.57-.31s-.36-.45-.72-.39c-.7.1-1.28-.34-1.92-.51-.2-.06-.41-.31-.6-.16-1,.79-2.67.75-3.1,2.34,0,.12-.38.15-.68.25.64.49,1,1.16,1.76,1.4.3.1.52.47.75.74,0,0-.18.25-.34.45.9.11,1.68.67,2.62.46.89.65,1.82.33,2.69.27.24-.76-.57-.45-.63-1,.87-.24,1.7-1,2.65-.59s1.84.24,2.52,1c.28-.63-.08-1.25.28-1.79.07.11.18.19.19.28s0,.33.2.43c.17-.34.53-.71.48-1-.12-.7.4-.68.73-.95s-.1-.85-.43-.85-1-.52-1.4.2C213.9,327.85,213.43,327.59,213.1,327.66Zm-1.78,9.23v1.17a2,2,0,0,1,0,.35.78.78,0,0,0,.6.93c.45.12.75-.25.81-.69,0-.28.3-.35.37-.56a1,1,0,0,0-.72-1.19A5.94,5.94,0,0,0,211.32,336.89Z" transform="translate(-64.87 -162)" style="fill:#2a4053;fill-rule:evenodd"/><path d="M205.29,348.25c-.39-.06-.72-.36-.68-.66a1.25,1.25,0,0,0-.83-1.41,1.27,1.27,0,0,1-.64-1.32c.07-.76,0-1.53,0-2.29a1.5,1.5,0,0,1,.52,0c.22.09.14.25,0,.36s0,.3.06.37a6,6,0,0,0,3.5,1.41c.6,0,1.29-.3,1.82.32.06.08.31,0,.46-.12a2,2,0,0,1,1-.66.79.79,0,0,0,.51-.83c0-.29-.27-.79.29-.84.36,0,.49-.49.91-.38.81.22,1-.41,1.18-1l-.62-.63c.35-.42.87-.9,1.29-.42.67.79,1.48.54,2.25.59,0,.23.12.38.28.35a1.82,1.82,0,0,1,1.72.5c.49.64,1-.44,1.28.13s.89,0,1.25.35c.44-.52.5.17.76.23-.05.41-.55.06-.67.43.38.31.92.21,1.37.44.69.34,1,.81.72,1.35a7.88,7.88,0,0,0-.32,2.91h-2.24c-.57.47.71.49-.26,1a.89.89,0,0,0-1-.12c0,.74-.22,1.51.6,2.15a.93.93,0,0,1,.13,1.27,1.31,1.31,0,0,0,0,1.19c.31.47.47.78,0,1.15.78,1.12-.16,2.65.92,3.68.36-.36,0-.89.22-1.29a.43.43,0,0,1,.31-.1c.14,0,.41.05.21.26-.49.52.4.82.15,1.37a1.85,1.85,0,0,0,.27,1.45,2.47,2.47,0,0,1-.37,2.11c-.14.27-.43.08-.65.13,0-.23,0-.47,0-.7a2.87,2.87,0,0,0-1.1-2.7c-.38-.31-.58-.84-1.21-.9a.72.72,0,0,1-.53-.8c.09-.53-.47-.84-.39-1.44.09-.78-.7-1.18-1.21-1.54-.29-.21-.91-1-1.41-.09-.73-.24-1.28.42-3.35.36-.75,0-.12,0,.51,0,.28,0,.63.25.89-.15s.53-.47.68-.79c-1.43-.52-2.31.69-2.08,1,.94.36.54.87,0,1-.83.27-.77.84-.77,1.46-.84-.39-1.22-1.39-2.16-1.63-.68-.17.07-1.19-.68-1.18-.5,0-.82-.35-1.25-.46-.24-.06-.53-.65-.5-1,.1-1.11-.65-2.1-.38-3.22.24.12.48.25.74.35s.27,0,.25.28c-.09,1.08,0,1.28.9,1.48a2.62,2.62,0,0,1,1.65.94c-.37.25-.73.11-1.07.15s-.37.32-.26.66h1.9c.34-.71.65-1.5,1.68-1.37,1.44.19,2-.76,2.59-1.81.15-.29-.39-.65.12-.88l-.61-.25c-.13,0-.15-.36-.39-.14-.47.29-.37,1.05-1.11,1.29,0-1.07-.25-2.13,1.21-2.5.22-.05.44-.37.55-.62s-.17-.69-.28-1.05a3.86,3.86,0,0,0,1.71-.61c-.13-.32-.58,0-.68-.38a1,1,0,0,1,1.38-.37c-.9.68.17,1.05.12,1.66.49-.29.53-.72.75-1.05s.45-.5.76-.05c.06.08.34,0,.52,0,.5.42.5.42.84-.32.38.07.08.61.38.64,1,.1.4.6.23,1,.5.36.91-.08,1.35-.16a1.18,1.18,0,0,1-.37,1.26c.51,0,.84.3,1.15-.27a4.62,4.62,0,0,0,.3-2.34c0-.08-1.39-.45-1.68-.66-.6-.44-1.24-.09-1.85-.21a7.86,7.86,0,0,0-.74-1.26,1.29,1.29,0,0,0-2-.09c-.35.29-.2.91-.76,1a2.12,2.12,0,0,0-1.12-1.12c-.62.44-1,.89-.4,1.54.18.21.06.43.1.64-.69.08-1.59-.33-1.79.84-.05.29-.36.17-.56.24a3,3,0,0,0-1.18.54c-.62.61-1.52.71-2.14,1.24s-1.7,0-2.36.66C204.94,347.12,205.43,348.08,205.29,348.25ZM218.41,354c-.16-.52-.4-.81-.36-1.22a14,14,0,0,0,0-1.59.78.78,0,0,0-.72-.81c-.21,0-.52-.14-.65.13s-.08.49.33.59c.6.14.59.46.39,1.07A1.24,1.24,0,0,0,218.41,354Zm-1-6.13a4.84,4.84,0,0,0,1.75-.32c.57-.16.36-.57.32-.83s-.35-.38-.55-.57c-.26.59-1,.09-1.36.61A1.69,1.69,0,0,0,217.39,347.88Z" transform="translate(-64.87 -162)" style="fill:#2a4053;fill-rule:evenodd"/><path d="M210.26,242.45c.21,0,.45-.1.66.11.36.39.75.75,1.13,1.12-.48.37-.8.15-1.24-.12a5.36,5.36,0,0,0-4.12-.65c.47.59.88.91,1.56.33.22-.19.55-.18.59.27a2.68,2.68,0,0,0-.3.12c-.18.1.16.92-.51.34a.64.64,0,0,0-.93.07.66.66,0,0,0,.08.81c.28.23.24.5.24.79A1.91,1.91,0,0,1,206,246c.33-.19-1-.69.13-.72.05,0,.1-.05.14-.09.18-.22.52-.35.43-.7s-.54-.51,0-.78a1.54,1.54,0,0,0-1.27-.14,1.9,1.9,0,0,0-.38.37l-1,1c-1-.91-1-.92-2-.38-.48,0-.36-.38-.34-.63.14-2-.66-3.88-.36-5.85.08-.51-.68-.86-.33-1.24s-.14-.85.2-1.23-.07-1,.47-1.21c-.33-1.59.82-2.88.89-4.43.21,1.2.34,2.39,1.38,3.18a2.21,2.21,0,0,0,1.19-2.75c-.62.14-1.08-.4-1.73-.43-.47,0-.74-.48-.66-1,.35.1.83-1.07,1.07.12.06.28.33.29.55.21a.76.76,0,0,0,.4-1c-.22-.42-.55-.25-1-.12V226.3c-.55.32-.91.55-1.41.2s-.73.14-1,.49c.36.32.57.8,1.13.9s.22.45.27.71c-1,0-1.36-.76-1.76-1.44-.19-.35.25-1,.66-1s.94,0,1.41,0,.62-.44,1.1-.37c.91.12,1.79.12,2.16,1.21a.87.87,0,0,0,1,.59,2,2,0,0,1,1.78.81,1.54,1.54,0,0,0,2.15.42c.68-.42.79.13,1.12.36-.88.87-1.68,1.93-3.28,1.47l1.51-.75c-.36-.82-1.49-.26-1.63-.68-.26-.73-.83-.86-1.31-1.19a1.24,1.24,0,0,0-1.17,0c-.25.13-.66.36-.46.86.55.5,1-.18,1.63-.24a4.47,4.47,0,0,0,.78.86c.7.46.26.86,0,1.3-.49.11-1.09-.28-1.48.25a2,2,0,0,0-.59,1.79.94.94,0,0,0,1.26-.36,4.44,4.44,0,0,0,.45-1c.13-.44.46-.22.72-.28a.69.69,0,0,0,.5.65,2.21,2.21,0,0,1,1.3,1.21,9,9,0,0,0,1.37,1.53c-.29,0-.24.85-.74.29-.2-.23-.49-.19-.74-.35-2.24-1.44-1.9-1.36-4.7-1a5.59,5.59,0,0,0,1.85.16c.23,0,.47,0,.45.35-.57-.06-.18.61-.55.7-.2-1-.94-.61-1.49-.7v2.25c.28-.35.38-.41.73-.24.72.35.84.2.71-.63,0-.11-.15-.24,0-.24.85-.05.52-.69.59-1.14.18,0,.39-.06.52,0a2.8,2.8,0,0,1,.53.51c-.37.44-1.06.81-.55,1.55.1.14.19.52.64.22s.63-.18.74-.5c.85.45,1,1.44,1.66,2,0,0,0,.23-.06.32a.35.35,0,0,1-.47.09c-.15-.06-.24-.26-.38-.36-1.8-1.32-2.35-1.47-4.7-1.29-.08.29-.17.58.29.61a1,1,0,0,0,.37.93l-.64.23c-.2.08-.4.18-.62.28.49.44.66.77,1.11.7a2,2,0,0,0,1.19-2c-.06-.15-.18-.17-.25-.08-.43.56-.75-.41-1.16-.08,1-.61,1.84-.54,2.37.47a3.34,3.34,0,0,0,1.3,1.52,12.57,12.57,0,0,1,1.67,1.37c-.65.59-1.27,0-1.57-.21-1.07-.86-2.21-.63-3.39-.54.9.31,2.08.05,2.46,1.29-.7.21-.83.68-.6,1.43Zm-7.76-8.4c.06.72-.5,1.25-.67,1.82a2.36,2.36,0,0,0,2.58.44c.82-.39,1.06-1.38.73-2.58C204.3,234.76,203.49,233.56,202.5,234.05Zm0,3.71a7.76,7.76,0,0,0-.72,1.35c-.07.23-.27.76.28.83.28,0,.72.22.78-.38,0-.19.37-.47.32-.54-.44-.6.24-1.22-.08-1.84a2.14,2.14,0,0,0-1.3,0C201.86,237.62,202.3,237.35,202.48,237.76Zm-.77,3c.29.32,1.25.22.49,1-.43.47.17.78.44.94s.74-.23.8-.48a6.88,6.88,0,0,0,0-1.66C202.86,240.75,202.29,240.54,201.71,240.8Zm6.42,1.13c-.3-.3-.61-.59-.12-1,.21-.17.18-.4,0-.59-.5.56-1.06-.47-1.63.13.35.44,1.13.82.52,1.58-.32-.12,0-.58-.38-.66a.86.86,0,0,0-.05,1C207.13,242.69,207.56,242.07,208.13,241.93Z" transform="translate(-64.87 -162)" style="fill:#2a4053;fill-rule:evenodd"/><path d="M222,316.29c1.45,0,1.77,1.07,2.12,2.11a.87.87,0,0,1-.77,1.09,1.87,1.87,0,0,1-1.85-.65,4.36,4.36,0,0,0-2.69-1.48c-.17-.3.52-.32.21-.68s-.4-.39-.78-.07c-.21.17-.93.25-1.12-.1-.28-.52-1.33.24-1.12-.68.14-.59.84,0,1.29-.38-.61-.76.1-1.87-.61-2.71.7-.15,1.56.41,2.08-.54-.4-.27-.17-.94-.65-1.07-.07-.73.52-.41.73-.69s.59-.11.83.15c.23-.23.62-.35.55-.88-.74-.43-1.35-.19-1.93.58a1.67,1.67,0,0,0-2.34-.53c-.45.22-1,.12-1.4.48-.21.18-.31.07-.43-.59s-.13-.71.41-1c-.08-.07-.17-.2-.24-.19-1.46.28-2.78-.36-4.09-.77a9.28,9.28,0,0,0-1.78-.33,1.34,1.34,0,0,0,.45-1.29c0-.24,0-.48.35-.46.58.26,1,1,1.78.71.22.82,1.08,0,1.4.55-.11.31-.58,0-.66.39.45.36,1.07,0,1.6.42.34.29,1.16,0,1.71.09s1-.55,1.66-.41c0,.6,0,1.18,0,1.76.51,0,1,.17,1.33-.08a3.56,3.56,0,0,0-1.35-1.68c-.08-.19.08-.44-.14-.62-.88.3-1.7.89-2.77.51.39-.41,1.24.1,1.16-.8.62-.08.74-.8,1.32-1s.66-.3.86.59a1.5,1.5,0,0,0,.8,1c.47.27.45-.51.59-.53.55-.06,1.12-.76,1.71,0,.27.36.69.29,1,0-.1-.35-.57,0-.66-.4.56-.45.36-1.09.3-1.62a.81.81,0,0,0-1-.66,8.48,8.48,0,0,0-.88-2.49h-1.26c0-.32-.13-.64.45-.74s-.15-.34,0-.61a2.34,2.34,0,0,1,2.37.8c.18.19.41.3.6.14s-.3-.36-.18-.48c.54-.59.59-1.69,1.78-1.62.32,0,.6-.3.67-.68.31,0,.73.15.71-.45a7,7,0,0,1,.26-2.4v3.14c-.78-.14-.84,1.06-1.64.81-.16.61.48.89.31,1.38-.29.15-.43-.65-.82-.09a1.79,1.79,0,0,1-.9.77.49.49,0,0,0-.38.77c.27.52-.15,1.6,1.09,1.42.2,0,.45.32.67.49,0,.8-1.11.91-.75,2,.38.2.5,1.16,1.34,1.46,0,1.14,1.26,1.26,1.68,2.1.72-1,.76-1.39.18-2a13.26,13.26,0,0,0-1.13-1.12,2.75,2.75,0,0,1-.86-2.36,5.19,5.19,0,0,0,1.25,2,3.17,3.17,0,0,1,1.37,3.69c-1.74.59-2.65-1-4.08-1.91.05.81.6,1.42.09,2-.36-.37.06-1.12-.61-1.33-.15,0-.36-.12-.47-.05a.35.35,0,0,0-.05.58c.2.21.43.38.73.65-.83-.06-.74.69-1.17,1,.39.65,1.35,1,1,2h1.56c.72.57,1.11,1.36,2,1.57-.23.19-.21.68-.83.3a24.17,24.17,0,0,0-3.29-1.42c-.5.7.52,1.31.25,2-.56.08-.21-1-.91-.75-.14,0-.23-.37-.14-.43.8-.63-.1-1.08-.12-1.63-.5.32-1.21.48-1,1.28.12.36-.36.41-.22.85.23.69-.51.12-.72.35s-.16.18.08.33a3.41,3.41,0,0,1,1.27,0,2.69,2.69,0,0,1,1.28.78c.29.41-.24.58-.27.88s.1.58.43.18c.3.3.88.09,1.05.78.08.35.23,1.09,1,1.2a1.94,1.94,0,0,1,.44-1.76C222.68,316.92,222.06,316.91,222,316.29Z" transform="translate(-64.87 -162)" style="fill:#2a4053;fill-rule:evenodd"/><path d="M209.9,267.3c-.22,0-.4-.14-.34-.27a2,2,0,0,0-.24-1.89,1,1,0,0,1,0-1c.05-.12.4-.16.13-.36a.71.71,0,0,0-.46,0c-.14,0-.2.34-.37.21a.37.37,0,0,1,0-.59c.22-.21.25-.36-.12-.39-.17,0-.41-.13-.32-.21.59-.54.26-1-.06-1.49s-.16-1.13-.91-1.17a1.24,1.24,0,0,0-.15-1,7.87,7.87,0,0,0,4.56-1.38c.41-.27.47-.36.27-.72-.72.41-1.4.93-2.31.59,0-.44.73-.12.71-.75s.6.53.82-.17c.14-.44.62-.43,1-.42a2.27,2.27,0,0,0,1.18-.11,1,1,0,0,1,1.37.11.33.33,0,0,0,.46-.12.62.62,0,0,0,0-.47c-.42-.52-1.15-.59-1.52-1.2-.67,1-1.83.77-2.55,1.43-.11.11-.48.07-.66,0s-.15-.54-.14-.81.4-.27.34-.56c2,0,2,0,2.55-.92-1-.14-1.84-.89-2.89-.34-.13.49.52.76.34,1.26a2,2,0,0,0-.79.21c-1.16.45-2.11,1.43-3.6,1.23.52.61,1.17,0,1.53.51-1,1,.7,1.16.63,1.85s-1.16.07-1.31.81c-.36,0-.41-.23-.35-.45a1.66,1.66,0,0,0-.49-1.54c-.67-.58-.57-1.23-.59-1.91a5,5,0,0,0,3.2-.88,2,2,0,0,1-1.05-.74c.79-.41.79-.41.49-1.64.73.18,1.15,1.07,2,.78.72-.25,1.56-.21,2.11-.95a4.46,4.46,0,0,1-1.94-.85c.57.07,1,0,.78-.62-.42-.19-.9,0-1.35-.08a.86.86,0,0,0-.71-1.06c.15-.57.93-.39,1.11-.93.44.12,1,.1,1.31.38,1,1,2.15.58,3.25.35.33-.07.35-.06.37.21s-.1.34-.3.34a5.34,5.34,0,0,0-3.25.6,1.91,1.91,0,0,0,1,1.34c.48.24.5,1.17,1.35,1,.1,0,.16.24.37.22a2.75,2.75,0,0,1,2.29.46c.33-.37.49-1.15,1.29-.43.36.33.39-.36.52-.71.34.31.74.45.56,1.07-.64.13-1.41-.09-2.08.36a1.28,1.28,0,0,1-1.14-.18c-.63-.36-.85-.24-.95.51-.07.56-.58.27-.72.58.47.52.88,0,1.36-.12v1.32c.79-.3,1.5-.62,2.15.17.26.32.8-.11,1.2.22.22.18.68-.15,1,.32a3.13,3.13,0,0,0-2.18.63c-.33.93.3,1.71.78,2.53,0,0,.09.06.11.05a2.27,2.27,0,0,1,2.28-.13.9.9,0,0,1,0,.17c-.27.36-.95.1-1.06.71a.49.49,0,0,0-.52.36c-.21.63-.75.82-1.26,1.06a7.19,7.19,0,0,1-2.63,1.33c-.38.13-1.16.55-1.31-.46,0-.22-.37-.23-.59-.07a5.88,5.88,0,0,1-3.94,1c.79.54,1.79.23,1.72,1.25-.3.3-.88.24-1,.71.54.89,1.5,1.1,2.35,1.52a22.29,22.29,0,0,1-2.3.08C210.12,266.94,209.87,267,209.9,267.3Zm3.15-9.4c-1.87.62-3.23,1.63-4.9,1.92h1.72c-.21.72-.73,1.07-1.34,1.72a2.11,2.11,0,0,1,2,.88.7.7,0,0,0,.93.23c.58-.39,1.31-.32,1.84-.72.21-.15.53-.31.52-.66,0-.1-.05-.26-.13-.29s-.24.34-.5.19a2.36,2.36,0,0,1,0-1.18c0-.05.08-.09.12-.13,2.3-.12,2.3-.12,3,.78-.66-.22-1.16-.57-1.78-.13a.66.66,0,0,0-.34.65c0,.25.1.34.34.48a3,3,0,0,0,2.33.26c.51-.11.58-.82.83-1.4-1.32.51-.81-.81-1.3-1.13a1.57,1.57,0,0,1,.1-.23c.17,0,.37.06.5-.16-.17-.48-.71-.45-1-.73.95-1.08,1-1.33.87-2.38-1.13,1.51-2.18,3.09-4.51,2.86.21-.24.33-.37,1.86-.81.05-.55-.35-.68-.56-.94s-.25-.31-.39-.32-.61-.15-.8.15.22,1.23.69,1.25S213.79,258.17,213.05,257.9Z" transform="translate(-64.87 -162)" style="fill:#2a4053;fill-rule:evenodd"/><path d="M218.43,344.7c-.18,0-.46.07-.52,0-.31-.45-.55-.27-.76.05s-.26.76-.75,1.05c0-.61-1-1-.12-1.66a1,1,0,0,0-1.38.37c.1.35.55.06.68.38a3.86,3.86,0,0,1-1.71.61c.11.36.44.68.28,1.05s-.33.57-.55.62c-1.46.37-1.21,1.43-1.21,2.5.74-.24.64-1,1.11-1.29.24-.22.26.1.39.14l.61.25c-.51.23,0,.59-.12.88-.56,1.05-1.15,2-2.59,1.81-1-.13-1.34.66-1.68,1.37h-1.9c-.11-.34-.19-.62.26-.66s.7.1,1.07-.15a2.62,2.62,0,0,0-1.65-.94c-.9-.2-1-.4-.9-1.48,0-.28-.12-.22-.25-.28s-.5-.23-.74-.35-.34-.2-.37-.44a.27.27,0,0,0-.34-.27c.14-.17-.35-1.13.49-.39.66-.65,1.64,0,2.36-.66s1.52-.63,2.14-1.24a3,3,0,0,1,1.18-.54c.2-.07.51.05.56-.24.2-1.17,1.1-.76,1.79-.84s.77-.94,1.42-1.06.41-.7.76-1a1.29,1.29,0,0,1,2,.09,7.86,7.86,0,0,1,.74,1.26C218.73,344,218.25,344.25,218.43,344.7Z" transform="translate(-64.87 -162)" style="fill:#fff;fill-rule:evenodd"/><path d="M222.68,282.21H223c0,.35.32.45.5.66s.39.55.68.38.45-.37.8,0c.2.22.49-.13.83-.46a1,1,0,0,0,.45,1c-.77.42-1.07,1.34-2,1.57-.18,0-.33.29-.22.39.58.51-.19,1,0,1.46.07.18.14.32.36.28,0,.1-.06.24-.13.29a.45.45,0,0,1-.6-.13c-.24-.25-.45-.23-.7.05-.58.65-1,.76-1.54.12-.38-.44-.7,0-1.06-.21s-1-.08-1.5-.08c-.05,0-.09.07-.15.12.62.23.17.85.45,1.18s.73-.12,1,.26c-.27.19-.4.5-.84.55a22.94,22.94,0,0,1-4.5-.48c.69-.88-.12-.51-.33-.61.21-.43.67-.83,0-1.29a8.12,8.12,0,0,1-1.07-1.05l2.06-.93c0-.82.64-.63,1.12-.63a14.06,14.06,0,0,0,4-.8c-.28-.57.28-1.24-.43-1.69,0-.06,0-.15,0-.16A2.6,2.6,0,0,1,222.68,282.21Zm-.77,2.71a2.51,2.51,0,0,0,2.55-.76c-.37-.37-1,.07-1.26-.52-.33.35,0,.78-.3,1S222.3,284.56,221.91,284.92Z" transform="translate(-64.87 -162)" style="fill:#fff;fill-rule:evenodd"/><path d="M211,356.42c0-.62-.06-1.19.77-1.46a5,5,0,0,0,1.36-1c.68.06,1.23-.6,2-.36.5-.86,1.12-.12,1.41.09.51.36,1.3.76,1.21,1.54-.08.6.48.91.39,1.44a.72.72,0,0,0,.53.8c.63.06.83.59,1.21.9a2.87,2.87,0,0,1,1.1,2.7c0,.23,0,.47,0,.7a2.4,2.4,0,0,0-.34.68c-.06.55-.44.34-.72.39-.07-.34.14-.71-.13-1a1.53,1.53,0,0,0-.89-.43,6.09,6.09,0,0,1-3.15-1.8c-.67-.78-1.69-1.19-2.37-2-.13-.17-.58,0-.8-.17a.81.81,0,0,1-.49-.67c0-.19.22-.57-.27-.56-.19.39.19,1.23-.78,1a2.93,2.93,0,0,1,.21-.39C211.4,356.43,211.16,356.44,211,356.42Z" transform="translate(-64.87 -162)" style="fill:#2a4053;fill-rule:evenodd"/><path d="M216.65,307.42c-.6-.17-1,.53-1.63.38s-1.37.2-1.71-.09c-.53-.45-1.15-.06-1.6-.42.08-.4.55-.08.66-.39-.32-.55-1.18.27-1.4-.55.77-.9.08-1.6-.33-2.34a15,15,0,0,1,3.16-1.12c-1.33.25-2.35-.65-3.54-.8-.2,0-.44,0-.21-.32.08-.12.14-.26.21-.39.68.22,1.19.88,2,.71.62.74,2-.25,2.4,1,0,.05.27.09.31,0a1.22,1.22,0,0,1,1.28-.33c.57.1.9-.54,1.45-.37-.23.87-.93.68-1.55.72-.17,0-.25.21-.22.4s.17.39.33.29c.43-.28.68-.26,1.09.14s1.75.29,2.49-.13a.81.81,0,0,1,1,.66c.06.53.26,1.17-.3,1.62.09.36.56.05.66.4-.34.26-.76.33-1,0-.59-.78-1.16-.08-1.71,0-.14,0-.12.8-.59.53a1.5,1.5,0,0,1-.8-1c-.2-.89-.19-.82-.86-.59s-.7.92-1.32,1c.08.9-.77.39-1.16.8,1.07.38,1.89-.21,2.77-.51C216.76,307,216.6,307.2,216.65,307.42Z" transform="translate(-64.87 -162)" style="fill:#fff;fill-rule:evenodd"/><path d="M211.68,273.69c-.1,0-.29-.09-.29-.12a4.47,4.47,0,0,0-.42-1.78c.82-.49-.17-1,0-1.47s-.49-.91-.32-1.55c.7.19,1.23-.69,2-.31-.3.64-.48,1.38-1.36,1.46.22.43,1.45.14.79,1.17-.06.09.29.08.45.11.5.1.53.07,1.23.85a.69.69,0,0,0,.6.22,5.48,5.48,0,0,0,3.1-1,.42.42,0,0,0,.15-.63c-.73-.47-1.08.2-1.61.65-.24-.74.2-.94.7-1.13s1.24-.06,1.39-.9c0-.23.34-.2.58-.07a5,5,0,0,0,1.17.61c.61.17.78-.11.7-.87,0-.39-.17-.84.11-1.19.62-.77-.44-.2-.37-.64.41-.09.72-.6,1.31-.48v1.06c-.49,1.05-.4,1.72.34,1.74s1.16.45,1.79.39c.78,0,1.11.5,1.42,1.07-.65,0-1.08.21-1.07.94,0,.4,0,.79,0,1.19-.29,0-.35-.25-.61-.38-.31.58.27,1.6-.82,1.8,0-.25-.1-.37-.35-.36,0-.35.24-.29.45-.36.46-.17.25-.59.22-.89s-.26-.17-.44-.17-.26.49-.5.24.1-.48.2-.73.91-.26.65-.43c-.59-.39.37-.58-.09-.86-.33.16-.8-.22-1.19.2.24.21.5.43.29.74-.49.72-1.38,1-2,1.54a.54.54,0,0,1-.51,0c-.41-.66-1.24-.07-1.69-.54s.62-.48.11-.93a7.94,7.94,0,0,1-4.24,1.19s-.09.19-.13.29c0,.32-.18.36-.42.36Zm6.82-1.55c1.18.51,1.62-.53,2.39-.78-.75-.79-1.55-1.49-2.77-1.13A2.78,2.78,0,0,0,218.5,272.14Z" transform="translate(-64.87 -162)" style="fill:#2a4053;fill-rule:evenodd"/><path d="M214.52,288.6c.21.1,1-.27.33.61a22.94,22.94,0,0,0,4.5.48c.44-.05.57-.36.84-.55-.23-.38-.65-.05-1-.26s.17-.95-.45-1.18c.06-.05.1-.12.15-.12.51,0,1.12-.15,1.5.08s.68-.23,1.06.21c.57.64,1,.53,1.54-.12.25-.28.46-.3.7-.05a.45.45,0,0,0,.6.13c.07-.05.09-.19.13-.29.67.59.67.59.64,1.71-.34,0-.26-.24-.28-.42a4,4,0,0,1,0-.5c-.77.37-.72.38-.8.68a2.6,2.6,0,0,1-.55,1.22c.25.34.89,0,.91.24,0,.69,1,.84.85,1.59-.05.23,0,.47-.37.45-.2-.86-.2-.85-.87-.73-.49.09-1.07-.18-1.44.36-.59-.68-.68.19-1,.32a.53.53,0,0,1-.61-.15.76.76,0,0,0-1.09.06c-.52.46-.67-.18-1-.39a2.86,2.86,0,0,0,1.43-1.12.36.36,0,0,0,0-.33c0-.08-.22-.17-.27-.14-1.15.66-2.4.27-3.59.32-.56,0-.91.41-1.39.52.05.65-.39.57-.8.57H213c.23.68.36,1.19.93,1.42.15.06.33.16.09.33s-.09.66-.25,1c-.69.45-1.13-.23-1.85-.4.47-.5.46-1.12.7-1.68a2,2,0,0,0-.1-1.79,1.33,1.33,0,0,1,.59-1.68c.08,0,.23,0,.35,0C214,289.35,214.34,289.26,214.52,288.6Zm8.58,2.1c-.7-.75-.95-1.85-2.08-2a3.74,3.74,0,0,0-.49,1.92c0,.43.33.78.55.8C221.77,291.44,222.61,291.76,223.1,290.7Z" transform="translate(-64.87 -162)" style="fill:#2a4053;fill-rule:evenodd"/><path d="M211.08,357.79a4.88,4.88,0,0,0,2.62,1.76,7.55,7.55,0,0,1,3.39,2.07,3.67,3.67,0,0,1,1,2.25,3.23,3.23,0,0,1-.2,1.55,5.32,5.32,0,0,1,.64.81,1,1,0,0,1,.13-.24.78.78,0,0,0,.15-.48v-1.59c0-.71,1.16-.31,1.07-1.11-.07-.34.14-.71-.13-1a1.53,1.53,0,0,0-.89-.43,6.09,6.09,0,0,1-3.15-1.8c-.67-.78-1.69-1.19-2.37-2-.13-.17-.58,0-.8-.17a.81.81,0,0,1-.49-.67c0-.19.22-.57-.27-.56-.19.39.19,1.23-.78,1C211,357.34,210.91,357.56,211.08,357.79Z" transform="translate(-64.87 -162)" style="fill:#2a4053;fill-rule:evenodd"/><path d="M222.33,274c.25,0,.36.11.35.36.07.55-.61.17-.68.56.14.26.69,0,.66.38-.07.73.26.75.87.89a13.62,13.62,0,0,0,2.19.67,1.45,1.45,0,0,1,1.22,1.23c.06.33-.06.65.24,1a2.69,2.69,0,0,1,.44,2.26c-.54.43-.94-.06-1.38-.22,0-.24-.11-.36-.36-.35,0-1.13-.06-1.15-1.42-1.42.48-.67.84-1.62,1.95-.76.1.08.2-.31.13-.55-.41-.25-.91,0-1.32-.13a1.83,1.83,0,0,0-1.11,0c-.59.11-1.11.13-1.49.65-.17.24-.43.08-1.84-1.3-1.32.38-1.09.9-.17,1.31,1.3.57,1.7-.55,2.45-1.13-1-1-2.07-1.67-2.28-.18a24,24,0,0,0,1.53,2c-.44.38-1.18-.17-1.58.47,0,.08-.43.1-.45-.09-.06-.66-1.25-.67-.76-1.58a15.09,15.09,0,0,1-3,.63c-1.12,0-2.24,0-3.36,0-.24,0-.48,0-.46.36-.3,0-.36-.18-.35-.42v-1c.57.06,1.17-.14,1.71.13s1-.25,1.53-.15a4.94,4.94,0,0,0,3.83-1.11,2.53,2.53,0,0,1-2.1-.49,1.34,1.34,0,0,1,.35-.15c.84,0,.85,0,1.74-.85a.79.79,0,0,1,1.1-.06c-.12.13-.34.26-.32.37a.29.29,0,0,0,.41.17c.41-.3.87-.56,1-1.13S222.08,274.1,222.33,274Z" transform="translate(-64.87 -162)" style="fill:#2a4053;fill-rule:evenodd"/><path d="M206,246a1.91,1.91,0,0,0,1.42-.36c.37.05.61.53,1.06.36,0,.47-.4.27-.67.47a1.23,1.23,0,0,0,1,.7c.07.59-.62.84-.35,1.37.16.31.33.59.71.65-.15.47-1.17.53-.59,1.37.49.28.88-.11,1.3-.31.17.51-.38.78-.39,1.26,0,.21-.39.26-.57.07s.27-.26.18-.55a2.52,2.52,0,0,0-1.25,0c-.26.46.12,1-.19,1.3-1.08-.2-.33-1.21-.72-1.65-.47.41-.89.8-1.33,1.18.26.23.55.48.31.74s-.42.67,0,1,.44.81.69,1.19c-.32.28-.92-.22-1,.46-.29-.07-.33.28-.64.32.11-1.48-1-2.55-1.37-3.91-.17-.64-.68-1.21-.45-1.89.16-.52-.61-.61-.37-1.11s1,.23,1.68-1.23c0-.08.19,0-.33,1.14a2.21,2.21,0,0,0,.27,2.38,10.4,10.4,0,0,1,1.46-1.17c.7-.4,1.23-.1,1.83,0a4.4,4.4,0,0,0-.55-2.29c-.21.26-.08.56-.1.84s0,.48-.3.51-.45-.08-.42-.38a.79.79,0,0,0-.69-1c-.57,0-.21-.62-1.17,0-.79.71-1,.69-1.13.72-.63.1-.57-.32-.56-.72,1-.41,1.3-1.39,2-2.23C204.83,246.13,205.43,246,206,246Z" transform="translate(-64.87 -162)" style="fill:#2a4053;fill-rule:evenodd"/><path d="M212.39,301c0-.35-.28-.26-.45-.37-.95-.61-1-.85-.62-2.06.06-.21,0-.5.1-.66.6-.87.22-1.5-.45-2.07l1.18-1.17a6.57,6.57,0,0,0,3.57,1c1.2,1.09,2.5-.32,3.61,0,.53.47-.47.68,0,1.1.25.21.17.66.51.84.67.36,1.35.06,2.16.21-.22-1.4-1.21-2-2-2.86-.24.47-.72-.11-.85.12-.39.68-.92-.44-1.26.15-.18-.29-.36-.58-.58-.91.63-.38,1.13.76,1.75.1-.1-.12-.29-.24-.29-.35s.22-.24.39-.2.42.49.82.06c.19-.22.73-.14.25.42-.12.14.17.3.28.22.78-.64,1.46-.24,2.12.2.18.12.27.11.38,0s.28-.07.33.09a.36.36,0,0,1-.17.45c-.26.1-.58-.1-.83.12a3.86,3.86,0,0,1,.67,2c0,.23.22.49.34.74a2.77,2.77,0,0,0-1.38.22c-.69.39-1.07-.19-1.58-.22a5,5,0,0,1-2-.21c-.08,0-.47.4-.7.07a1,1,0,0,1-.06-.57c.25-.66.87,0,1-.79a13.46,13.46,0,0,1-7-1.08c.24.93,1,.7,1.44.93-.14.15-.34.28-.34.39a.29.29,0,0,0,.41.18c.43-.23.81-.65,1.33-.15a9.85,9.85,0,0,1-2.44,1c-.26,1.32.57,2.12,1.4,2.91C213.09,301.14,212.73,301,212.39,301Z" transform="translate(-64.87 -162)" style="fill:#2a4053;fill-rule:evenodd"/><path d="M214.52,288.6c-.18.66-.54.75-1.07.36-.19-.36-.24-1-.9-.39,0,0-.23-.52-.1-.53.82-.09.63-.67.65-1.16s0-.94,0-1.42.1-.82-.56-.82c-.21,0-.24-.39,0-.57s.17-.42.27-.61c.25-.5-.88-.7-.23-1.22a2.39,2.39,0,0,0,.76-1.16c.82.52,1.87.32,2.63,1-.13.24-.41.11-.73.35a4.2,4.2,0,0,1,1.17.75c.37.35.9.09,1.36.12a3.58,3.58,0,0,0,1.57,0,1.48,1.48,0,0,0,.9-1c.71.45.15,1.12.43,1.69a14.06,14.06,0,0,1-4,.8c-.48,0-1.1-.19-1.12.63l-2.06.93a8.12,8.12,0,0,0,1.07,1.05C215.19,287.77,214.73,288.17,214.52,288.6Z" transform="translate(-64.87 -162)" style="fill:#2a4053;fill-rule:evenodd"/><path d="M221.26,323a6.42,6.42,0,0,1-3.1-.57c1,2.11,2.67,2.07,4.32,2.52a2.3,2.3,0,0,1-1.87,0c-.26-.13-.36-.25-.41.12-.09.56-.39.48-.7.2s-.38-.26-.37-.55a.72.72,0,0,0-.52-.64c-1.45,0-1.6-1.21-2.16-2.27l-.45,1c-.66-.55-.18-1.14-.48-1.46-.83-.85.6-.23.37-.69a2.74,2.74,0,0,0-1.21-1.9c-.75-.17-.28.8-.87.68a.28.28,0,0,0-.28-.35h-2.18a2,2,0,0,1,1.69-.71,9.78,9.78,0,0,1,2.87.3,7.06,7.06,0,0,0,2.54.06c-.6-.73-.43-1.18.33-1.42,0,1,.17,1.84,1.29,2.2a.68.68,0,0,1,.48.64,3.27,3.27,0,0,1-2-1,2.2,2.2,0,0,1-1.24.83c.32.23.45.57.88.59.23,0,.44.35.63.56s.67,0,.69.57.43-.36.67,0c.13.23.37.38.38.72S221.31,322.5,221.26,323Z" transform="translate(-64.87 -162)" style="fill:#2a4053;fill-rule:evenodd"/><path d="M218.07,261.62c.51-.24,1.05-.43,1.26-1.06a.49.49,0,0,1,.52-.36c.56-.07.18.6.53.7.3-.13,0-.57.37-.69.15.33.4.34.84.53s.39-.18.37-.35-.39-.26-.34-.55c.85,0,1.36.71,2.12.83v.77c-1.16.71-2.28-.63-3.44-.1-.24.57-.17,1,.42,1.06l-1.34,1.33a4.27,4.27,0,0,1,3.3,1.08v.79c.28.45.59-.51.73.27a2.77,2.77,0,0,0,.34.72c-.17,0-.43.07-.51,0-.56-.63-1.08-.33-1.62,0-.36-.39-.31-.92-.47-1.38-.69-.18-.83.5-1.22.78s-.58.76-1.15.6v-.36c-.19-.64.45-.85.68-1.26-.2-.42-.68-.47-1.05-.7.6-.4.18-1.17.72-1.54.09-.07,0-.3-.2-.38C218.16,262,218.16,262,218.07,261.62Z" transform="translate(-64.87 -162)" style="fill:#2a4053;fill-rule:evenodd"/><path d="M206.7,319.49a.28.28,0,0,0-.27-.35c-.29,0-.59,0-.88,0h-1.11c.7-.54.38-1.21.55-1.78.5.21.62.83,1.2.71.13-.08.16-.17.08-.25-.33-.33-.66-.65-1-1,.4-.26.56-.78,1.07-.88-.1.81,1,.42,1.1,1.09a1.27,1.27,0,0,0,1,1.18c.09,0,.09.52.13.79,1.08.38,2.27.3,3.33.83.68.34,1.26-.4,1.95-.34-.06.38.14.8-.24,1.13s.08.58.22.84c-.37.26-.82.35-1,0-.37-.66-1.23-.25-1.59-.85C209.59,320.53,208.2,319.81,206.7,319.49Z" transform="translate(-64.87 -162)" style="fill:#2a4053;fill-rule:evenodd"/><path d="M209.9,312.74a4.42,4.42,0,0,0,1.71.71h2.11c.25,0,.45,0,.45-.37s-.43-.25-.73-.52c.33-.24.79-.29,1-.64s.36-.22.59-.27c.43-.1.55.39.92.38s.56-.64.87-.31.66.19.87.47c-.19.49-1-.2-1,.54h-.87a2.91,2.91,0,0,0-.55,2c0,.24,0,.47-.36.45-.05-.25.18-.66-.28-.7-.64,0-1.3,0-2,0a14.42,14.42,0,0,1-5.17-1.21,1.44,1.44,0,0,0-.62-.22c-.16,0-.36.07-.46-.17s.74,0,.68-.52c0-.36.34-.44.48-.69.45.2.63.89,1.29.68C209.19,312.52,209.74,312.06,209.9,312.74Z" transform="translate(-64.87 -162)" style="fill:#2a4053;fill-rule:evenodd"/><path d="M221.26,330.5c-.09.49.15,1-.21,1.5-.24.34.57.69,0,1.22a12.25,12.25,0,0,1-2-1.21,2.29,2.29,0,0,1-.62-.62c-.29-.38-.42.26-.61.09s-.11-.51-.37-.73a1.26,1.26,0,0,0-.77-.26c-1-.13-1-.15-1.05-1.29.75-.5,1.37.3,2.07.23.43.24.88.71,1.27.66C219.81,330,220.46,330.68,221.26,330.5Z" transform="translate(-64.87 -162)" style="fill:#2a4053;fill-rule:evenodd"/><path d="M222,316.29c.09.62.71.63,1.17,1a1.94,1.94,0,0,0-.44,1.76c-.78-.11-.93-.85-1-1.2-.17-.69-.75-.48-1.05-.78-.33.4-.46.21-.43-.18s.56-.47.27-.88a2.69,2.69,0,0,0-1.28-.78,3.41,3.41,0,0,0-1.27,0c-.24-.15-.2-.2-.08-.33s1,.34.72-.35c-.14-.44.34-.49.22-.85-.26-.8.45-1,1-1.28,0,.55.92,1,.12,1.63-.09.06,0,.46.14.43.7-.2.35.83.91.75a.27.27,0,0,1,.35.26A.85.85,0,0,0,222,316.29Z" transform="translate(-64.87 -162)" style="fill:#2a4053;fill-rule:evenodd"/><path d="M209.9,312.74c-.16-.68-.71-.22-1.06-.35-.28-.68-1-1-1.39-1.61a1.53,1.53,0,0,0,1.1-1.23,9.14,9.14,0,0,0,.29-1.69c.74.2,1.34.72,2.07.68.2.69-.44.81-.64,1.2a.49.49,0,0,0,.46.17c.22,0,.49-.07.59.21s-.11.42-.27.6a.73.73,0,0,1-1.08.11c-.55-.51-.47.33-.78.3.81.19.77,1.12,1.44,1.41C210.38,312.86,210.12,312.7,209.9,312.74Z" transform="translate(-64.87 -162)" style="fill:#2a4053;fill-rule:evenodd"/><path d="M224.8,362.65c-1.17.62-2.36,1-2.49,2.43,0,.35-.49.2-.76.2s-.39-.17-.27-.33c.29-.4.08-.73,0-1.13-.19-1.17-.1-1.24,1.23-2.06.28.15,0,.6.39.69s.54-.2.71-.41a.73.73,0,0,0,0-1c-.39-.47-.2-.95-.16-1.45.48.07.14.55.45.66.32-.24.41-.2.56,0C225,361,224.78,361.85,224.8,362.65Z" transform="translate(-64.87 -162)" style="fill:#2a4053;fill-rule:evenodd"/><path d="M224.46,287.54c-.22,0-.29-.1-.36-.28-.18-.48.59-.95,0-1.46-.11-.1,0-.35.22-.39.9-.23,1.2-1.15,2-1.57a1,1,0,0,1-.45-1c-.34.33-.63.68-.83.46-.35-.37-.49-.16-.8,0s-.51-.17-.68-.38-.51-.31-.5-.66c.29,0,.71-.13.85,0,.82.83,1.3.1,1.85-.38,1.25,1.41.91,3.27,1.58,4.81a.88.88,0,0,1-1.26-.17c-.3-.33-.64-.61-.62-1.16A3.29,3.29,0,0,0,224.46,287.54Z" transform="translate(-64.87 -162)" style="fill:#2a4053;fill-rule:evenodd"/><path d="M217.71,302.45c-.55-.17-.88.47-1.45.37a1.22,1.22,0,0,0-1.28.33c0,.05-.3,0-.31,0-.41-1.27-1.78-.28-2.4-1-.82.17-1.33-.49-2-.71-.14-.49.19-.75.54-1.06a1.47,1.47,0,0,0,1.59.71,2.69,2.69,0,0,0,2,.71h3.29Z" transform="translate(-64.87 -162)" style="fill:#2a4053;fill-rule:evenodd"/><path d="M210.26,302.09c1.19.15,2.21,1.05,3.54.8a15,15,0,0,0-3.16,1.12c.41.74,1.1,1.44.33,2.34-.8.29-1.2-.45-1.78-.71.05-.21-.06-.43.11-.65A4.49,4.49,0,0,0,210.26,302.09Z" transform="translate(-64.87 -162)" style="fill:#2a4053;fill-rule:evenodd"/><path d="M208.84,243.51c.42.11,1.18-.38,1.07.63,0,.43.26.36.54.45,1.08.36,2.3.49,3,1.63-.87.53-1.6-.36-2.45-.25a18.62,18.62,0,0,1-2.48,0c-.17-.29.64-.4.12-.81-.27-.21.33-.32.25-.65A5.06,5.06,0,0,1,208.84,243.51Z" transform="translate(-64.87 -162)" style="fill:#2a4053;fill-rule:evenodd"/><path d="M220.55,320.2a4.54,4.54,0,0,1,2.85,1.23c.54.4.14,1.13.69,1.51.16.11-.09.4-.27.56-.93.81-1.49.71-2.56-.46.49-.12,1.33.84,1.44-.66a4.82,4.82,0,0,1-1.16-1.07C221.26,320.86,220.78,320.66,220.55,320.2Z" transform="translate(-64.87 -162)" style="fill:#2a4053;fill-rule:evenodd"/><path d="M225.67,294.61c.19-.07.21-.22.22-.39s.1-.19.16-.28c.64.67,1.66,1.17,1.15,2.4a5.75,5.75,0,0,1-3-3.13c-.5,0-.63.46-1,.72a1.89,1.89,0,0,1-.05-1.38c.54-.22,1,.85,1.51,0,.33.4.93.61.89,1.28C225.52,294.07,225.41,294.38,225.67,294.61Z" transform="translate(-64.87 -162)" style="fill:#2a4053;fill-rule:evenodd"/><path d="M214.87,267.65c-.29,0-.63-.1-.86,0-.84.44-1.84.1-2.6.5-.45.24-1.09-.07-1.35.54-.26-.28-.18-.5.05-.74s-.38-.37-.21-.67a5.2,5.2,0,0,0,2.15.05c.77,0,1.4-.41,2.12-.41a3.3,3.3,0,0,0,2-1c.14.25.51.32.49.68-.32.38-1.09.18-1.16,1C215.47,267.77,215.09,267.61,214.87,267.65Z" transform="translate(-64.87 -162)" style="fill:#2a4053;fill-rule:evenodd"/><path d="M202.8,228.6c-.05-.26.17-.63-.27-.71s-.77-.58-1.13-.9c.3-.35.65-.77,1-.49s.86.12,1.41-.2v1.89c.43-.13.76-.3,1,.12a.76.76,0,0,1-.4,1c-.22.08-.49.07-.55-.21-.24-1.19-.72,0-1.07-.12Z" transform="translate(-64.87 -162)" style="fill:#2a4053;fill-rule:evenodd"/><path d="M224.11,273c0-.4,0-.79,0-1.19,0-.73.42-1,1.07-.94.42.67.8,1.38,1.23,2s-.34.52-.16.81a.88.88,0,0,1-1-.49c-.05-.08.24-.4.19-.45-.26-.28-.49-.12-.7.12S224.32,272.94,224.11,273Z" transform="translate(-64.87 -162)" style="fill:#2a4053;fill-rule:evenodd"/><path d="M211.68,273.69H213c.24,0,.44,0,.42-.36.47.07,1-.13,1.45.16-.31.3-.54.55-.8.78s-.39.51-.83.51,0,.72-.53.68h-.35c-.31,0-.38-.17-.35-.41A1.93,1.93,0,0,0,211.68,273.69Z" transform="translate(-64.87 -162)" style="fill:#2a4053;fill-rule:evenodd"/><path d="M214.87,267.65c.22,0,.6.12.62-.11.07-.77.84-.57,1.16-1,.76.18,1.37-.54,2.13-.36v.36c-.05.25.12.75-.26.67-.79-.15-1.36.53-2.11.4-.15,0-.42.08-.44.16-.05.29,0,.63-.45.53A.84.84,0,0,1,214.87,267.65Z" transform="translate(-64.87 -162)" style="fill:#2a4053;fill-rule:evenodd"/><path d="M206.35,316c-.14-.9.61-1.6.24-2.83.89,1,2,.84,2.65,1.58-.48.21-.92.39-1.35.59-.15.07-.27.2-.42.28-.31.17-.39-.45-.68-.23S206.8,316,206.35,316Z" transform="translate(-64.87 -162)" style="fill:#2a4053;fill-rule:evenodd"/><path d="M222.68,282.21a2.6,2.6,0,0,0-2.48-.16s0,.1,0,.16c-.37-.07-.56-.34-.77-.77a2.76,2.76,0,0,1,2.75-.58C222.79,281,222.7,281.69,222.68,282.21Z" transform="translate(-64.87 -162)" style="fill:#2a4053;fill-rule:evenodd"/><path d="M223,300.65a2.3,2.3,0,0,1,1,.9c.3.41.48-.38.78,0,.1.14.23,0,.48-.52.33.68.88,1.3.4,2.12C224.17,302.55,223.36,301.81,223,300.65Z" transform="translate(-64.87 -162)" style="fill:#2a4053;fill-rule:evenodd"/><path d="M212.74,279.07h2.44a2.14,2.14,0,0,1-1.79,1.72A2,2,0,0,1,212.74,279.07Z" transform="translate(-64.87 -162)" style="fill:#2a4053;fill-rule:evenodd"/><path d="M206.77,319.54a12.39,12.39,0,0,1-2.47,2.12v-2.12Z" transform="translate(-64.87 -162)" style="fill:#2a4053;fill-rule:evenodd"/><path d="M223.75,269.78c-.63.06-1.14-.38-1.79-.39s-.83-.69-.34-1.74a5.2,5.2,0,0,1,2,1.48C223.83,269.34,223.7,269.57,223.75,269.78Z" transform="translate(-64.87 -162)" style="fill:#2a4053;fill-rule:evenodd"/><path d="M208.84,231.08c-.26.06-.59-.16-.72.28a4.44,4.44,0,0,1-.45,1,.94.94,0,0,1-1.26.36A2,2,0,0,1,207,231c.39-.53,1-.14,1.48-.25C208.73,230.72,208.85,230.84,208.84,231.08Z" transform="translate(-64.87 -162)" style="fill:#fff;fill-rule:evenodd"/><path d="M224.46,265.17c.57.21.88.72,1.28,1.12s.18.62,0,1.06a13.16,13.16,0,0,0-2-.59s0-.11,0-.17c.2,0,.38-.12.34-.24C224,265.86,224.31,265.55,224.46,265.17Z" transform="translate(-64.87 -162)" style="fill:#2a4053;fill-rule:evenodd"/><path d="M212.39,275.46h.35a6.46,6.46,0,0,0,2.47,1.78h-2.38c-.24,0-.47,0-.44.35-.32,0-.46-.26-.34-.4A2.57,2.57,0,0,0,212.39,275.46Z" transform="translate(-64.87 -162)" style="fill:#2a4053;fill-rule:evenodd"/><path d="M227.8,287.83c.14.18.21.22.21.27,0,.73,0,1.63-.68,1.86s-1.23-.5-1.53-1.23c-.1-.25-.4-.41-.2-.75,1,.12,1.17.9,1.49,1.71C227.33,289.06,227.55,288.5,227.8,287.83Z" transform="translate(-64.87 -162)" style="fill:#2a4053;fill-rule:evenodd"/><path d="M224.46,265.17c-.15.38-.51.69-.37,1.18,0,.12-.14.28-.34.24a2.77,2.77,0,0,1-.34-.72c-.14-.78-.45.18-.73-.27v-.79c0-.33.21-.35.45-.35A1.41,1.41,0,0,1,224.46,265.17Z" transform="translate(-64.87 -162)" style="fill:#2a4053;fill-rule:evenodd"/><path d="M225.88,280.79c.25,0,.36.11.36.35,0,.06,0,.14,0,.18-.34.37-.54,0-.85-.09s0,.64-.5.64c-.19,0-.3-.05-.26-.34,0-.12.23-.19,0-.37-.92-.9-.92-.91-.75-2.13.2.08.26.39.55.34v1.42Z" transform="translate(-64.87 -162)" style="fill:#2a4053;fill-rule:evenodd"/><path d="M222,350.19l1.21-.59c.23.47.42.89.62,1.29-.39.32-.4-.11-.59-.14a5.51,5.51,0,0,0-.67,1.81c-.36-.35-.22-.73-.2-1.05C222.4,350.68,222.43,350.69,222,350.19Z" transform="translate(-64.87 -162)" style="fill:#2a4053;fill-rule:evenodd"/><path d="M224.68,357.12c-.79.06-.82-.79-1.14-1.17-.52-.63.05-1.35.35-2,.25.21.76.45.54.74-.69.92-.11,1.54.35,2.22C224.79,356.94,224.74,357,224.68,357.12Z" transform="translate(-64.87 -162)" style="fill:#2a4053;fill-rule:evenodd"/><path d="M210.26,242.45h-1.67c-.23-.75-.1-1.22.6-1.43C209.94,241.21,209.88,242,210.26,242.45Z" transform="translate(-64.87 -162)" style="fill:#2a4053;fill-rule:evenodd"/><path d="M224.48,360.2c-.06-.95.14-1.71-.37-2.37-.11-.15.09-.31.26-.34a.37.37,0,0,1,.44.18c.08.16-.15.49.25.44.14,0,.16-.33.37-.18a.35.35,0,0,1,.09.3C225.22,358.84,224.89,359.44,224.48,360.2Z" transform="translate(-64.87 -162)" style="fill:#2a4053;fill-rule:evenodd"/><path d="M224.11,273c.21,0,.45.1.63-.11s.44-.4.7-.12c.05.05-.24.37-.19.45a.88.88,0,0,0,1,.49c.54.13.47.47.14.68a.72.72,0,0,1-.81-.1C225.09,273.83,224.59,273.41,224.11,273Z" transform="translate(-64.87 -162)" style="fill:#2a4053;fill-rule:evenodd"/><path d="M212.07,315.7c.68-.64,1.25-.29,1.58-.79.09-.14.66-.16.93.19a1.44,1.44,0,0,1,.3.48c0,.35-.22.31-.45.37C213.64,316.14,213.15,315.32,212.07,315.7Z" transform="translate(-64.87 -162)" style="fill:#2a4053;fill-rule:evenodd"/><path d="M221.62,259.84c-.05.29.31.35.34.55s.21.6-.37.35-.69-.2-.84-.53c-.34.12-.07.56-.37.69-.35-.1,0-.77-.53-.7.11-.61.79-.35,1.06-.71C220.94,260,221.35,259.79,221.62,259.84Z" transform="translate(-64.87 -162)" style="fill:#2a4053;fill-rule:evenodd"/><path d="M203.5,230.81c.54-.12.93-.17,1.23.23.16.2.32.44.14.6s-.27.77-.74.25c-.21-.22-.26.28-.51.19C203.39,231.72,203.56,231.3,203.5,230.81Z" transform="translate(-64.87 -162)" style="fill:#2a4053;fill-rule:evenodd"/><path d="M202.8,247.41h-.16a21,21,0,0,1-.55-2.84c.25.05.61-.14.7.25s-.13.86.25,1.27S202.46,246.89,202.8,247.41Z" transform="translate(-64.87 -162)" style="fill:#2a4053;fill-rule:evenodd"/><path d="M221.22,254.67a6.11,6.11,0,0,1-1.73.46c-.49,0-1.13-.3-1.75-.36A8.68,8.68,0,0,1,221.22,254.67Z" transform="translate(-64.87 -162)" style="fill:#2a4053;fill-rule:evenodd"/><path d="M224.72,312.69c-1.81.19-1.94-1-2.49-1.92a.54.54,0,0,1,.77.45c.05.41.37.76.58.77C224,312,224.15,312.35,224.72,312.69Z" transform="translate(-64.87 -162)" style="fill:#2a4053;fill-rule:evenodd"/><path d="M216.29,335.47c-.55.36-1.07.61-1.65,0a1.92,1.92,0,0,0-1.82-.66c0,.77,1.59.57.86,1.67-.31-.06-.6-.4-1-.27s-.71-.32-1.2-.48L210.3,337c-.39.43-1.2.06-1.43.79.34.44,1-.17,1.48.49a16.39,16.39,0,0,0-3.63.35,3.35,3.35,0,0,1-2.9-.69c-.08-.08-.25-.09-.28-.17-.22-.49-1,.2-1.09-.55s-.78-1.59-.21-2.45-.55-.11-.44-.51c.4-.37.4-.36,1.49-.64a.61.61,0,0,0,.24-.15c.18-.16.34-.34.51-.5.5.66,1-.32,1.49,0,.28.15.82-.09,1,.09.54.48,1.13.29,1.67.26a2.67,2.67,0,0,1,1.92.5c.48.44.55-.27.84-.12.47,1.16,1.35.65,2.13.65v-1c.5.17.78-.4,1.26-.37s1-.06.93.74c.46-.14.09-.64.54-.69.25.44,0,.91.11,1.36S216.47,335,216.29,335.47Z" transform="translate(-64.87 -162)" style="fill:#fff;fill-rule:evenodd"/><path d="M213.1,327.66c.33-.07.8.19,1-.14.41-.72.94-.2,1.4-.2s.66.67.43.85-.85.25-.73.95c.05.3-.31.67-.48,1-.17-.1-.18-.25-.2-.43s-.12-.17-.19-.28c-.36.54,0,1.16-.28,1.79-.68-.75-1.67-.65-2.52-1s-1.78.35-2.65.59c.06.57.87.26.63,1-.87.06-1.8.38-2.69-.27-.94.21-1.72-.35-2.62-.46.16-.2.36-.42.34-.45-.23-.27-.45-.64-.75-.74-.77-.24-1.12-.91-1.76-1.4.3-.1.65-.13.68-.25.43-1.59,2.08-1.55,3.1-2.34.19-.15.4.1.6.16.64.17,1.22.61,1.92.51.36-.06.52.19.72.39s.31.41.57.31c1-.38,1,.72,1.5,1,.53-.26,1-.71,1.63-.67,0,.1.07.26.12.28C213.08,328,213.11,327.83,213.1,327.66Z" transform="translate(-64.87 -162)" style="fill:#fff;fill-rule:evenodd"/><path d="M216.29,340.79c-.77-.05-1.58.2-2.25-.59-.42-.48-.94,0-1.29.42l.62.63c-.21.55-.37,1.18-1.18,1-.42-.11-.55.34-.91.38-.56.05-.31.55-.29.84a.79.79,0,0,1-.51.83,2,2,0,0,0-1,.66c-.15.16-.4.2-.46.12-.53-.62-1.22-.34-1.82-.32a6,6,0,0,1-3.5-1.41c-.11-.07-.3-.2-.06-.37s.23-.27,0-.36a1.5,1.5,0,0,0-.52,0c0-.1.05-.24.13-.3.52-.4.18-1.46,1.25-1.5.7,0,1.18-.8,2-.71a3.1,3.1,0,0,0,1.59-.39,3.61,3.61,0,0,1,2.74,0c.28.06.51.44.68.3.64-.51,1.35-.13,2-.29.19,0,.49-.28.5-.43,0-.68.73-.58,1-1C215.34,339.2,216.32,339.74,216.29,340.79Z" transform="translate(-64.87 -162)" style="fill:#fff;fill-rule:evenodd"/><path d="M216.29,335.47l.72-.36c0,.26-.18.69.27.69.6,0,1.17,0,1.53.59.09.14.16.15.25,0,.72-.82,1.18.32,1.88.07-.26.63-.57.71-1.05.42v1.16a.64.64,0,0,1-1.09-.17c-.14-.27-.39-.41-.49-.3-.65.72-1,.15-1.38-.27a1.11,1.11,0,0,0-1.05-.46c-.19,0-.29-.11-.3-.33s.09-.37.26-.36C216.45,336.21,216.27,335.78,216.29,335.47Z" transform="translate(-64.87 -162)" style="fill:#2a4053;fill-rule:evenodd"/><path d="M211,333.69c-.14-.61.23-1.25-.22-1.87-.1-.15.16-.75.41-.92a.77.77,0,0,1,1,.18,2.85,2.85,0,0,1,1,2.26C212.45,333.86,211.69,333.66,211,333.69Z" transform="translate(-64.87 -162)" style="fill:#2a4053;fill-rule:evenodd"/><path d="M213.1,327.66c0,.17,0,.33-.24.28-.05,0-.08-.18-.12-.28,0-.55-.64-.2-.7-.56s0-.71,0-1.06.11-.46.47-.54c.54-.11,0-.77.45-1.06.86.15,1,.91,1.19,1.57s-.26.82-.76.94S213.15,327.4,213.1,327.66Z" transform="translate(-64.87 -162)" style="fill:#2a4053;fill-rule:evenodd"/><path d="M211.32,336.89a5.94,5.94,0,0,1,1.06,0,1,1,0,0,1,.72,1.19c-.07.21-.33.28-.37.56-.06.44-.36.81-.81.69a.78.78,0,0,1-.6-.93,2,2,0,0,0,0-.35Z" transform="translate(-64.87 -162)" style="fill:#2a4053;fill-rule:evenodd"/><path d="M218.43,344.7c-.18-.45.3-.69.35-1.06.61.12,1.25-.23,1.85.21.29.21,1.69.58,1.68.66a4.62,4.62,0,0,1-.3,2.34c-.31.57-.64.28-1.15.27a1.18,1.18,0,0,0,.37-1.26c-.44.08-.85.52-1.35.16.17-.4.8-.9-.23-1-.3,0,0-.57-.38-.64C218.93,345.12,218.93,345.12,218.43,344.7Z" transform="translate(-64.87 -162)" style="fill:#2a4053;fill-rule:evenodd"/><path d="M218.41,354a1.24,1.24,0,0,1-1-1.83c.2-.61.21-.93-.39-1.07-.41-.1-.46-.31-.33-.59s.44-.16.65-.13a.78.78,0,0,1,.72.81,14,14,0,0,1,0,1.59C218,353.2,218.25,353.49,218.41,354Z" transform="translate(-64.87 -162)" style="fill:#2a4053;fill-rule:evenodd"/><path d="M217.39,347.88a1.69,1.69,0,0,1,.16-1.11c.36-.52,1.1,0,1.36-.61.2.19.51.36.55.57s.25.67-.32.83A4.84,4.84,0,0,1,217.39,347.88Z" transform="translate(-64.87 -162)" style="fill:#2a4053;fill-rule:evenodd"/><path d="M210.32,353.93c1.16-.27,2-1.48,3.47-1-.15.32-.5.5-.68.79s-.61.13-.89.15C211.59,354,211,353.93,210.32,353.93Z" transform="translate(-64.87 -162)" style="fill:#2a4053;fill-rule:evenodd"/><path d="M215.23,343.28c-.65.12-.78.94-1.42,1.06,0-.21.08-.43-.1-.64-.58-.65-.22-1.1.4-1.54A2.12,2.12,0,0,1,215.23,343.28Z" transform="translate(-64.87 -162)" style="fill:#2a4053;fill-rule:evenodd"/><path d="M202.8,247.41c-.34-.52.71-.83.24-1.32s-.15-.86-.25-1.27-.45-.2-.7-.25c.93-.54,1-.53,2,.38l1-1a1.9,1.9,0,0,1,.38-.37,1.54,1.54,0,0,1,1.27.14c-.53.27-.06.51,0,.78s-.25.48-.43.7c0,0-.09.09-.14.09-1.16,0,.2.53-.13.72-.57,0-1.17.13-1.18-.82C204.1,246,203.76,247,202.8,247.41Z" transform="translate(-64.87 -162)" style="fill:#fff;fill-rule:evenodd"/><path d="M202.5,234.05c1-.49,1.8.71,2.64-.32.33,1.2.09,2.19-.73,2.58a2.36,2.36,0,0,1-2.58-.44C202,235.3,202.56,234.77,202.5,234.05Z" transform="translate(-64.87 -162)" style="fill:#fff;fill-rule:evenodd"/><path d="M208.13,233.92c-.07.45.26,1.09-.59,1.14-.16,0,0,.13,0,.24.13.83,0,1-.71.63-.35-.17-.45-.11-.73.24v-2.25c.55.09,1.29-.34,1.49.7C208,234.53,207.56,233.86,208.13,233.92Z" transform="translate(-64.87 -162)" style="fill:#2a4053;fill-rule:evenodd"/><path d="M208.84,243.51a5.06,5.06,0,0,0,0,1c.08.33-.52.44-.25.65.52.41-.29.52-.12.81-.45.17-.69-.31-1.06-.36,0-.29,0-.56-.24-.79a.66.66,0,0,1-.08-.81A.64.64,0,0,1,208,244c.67.58.33-.24.51-.34A2.68,2.68,0,0,1,208.84,243.51Z" transform="translate(-64.87 -162)" style="fill:#2a4053;fill-rule:evenodd"/><path d="M202.48,237.76c-.18-.41-.62-.14-.72-.53a2.14,2.14,0,0,1,1.3,0c.32.62-.36,1.24.08,1.84.05.07-.3.35-.32.54-.06.6-.5.42-.78.38-.55-.07-.35-.6-.28-.83A7.76,7.76,0,0,1,202.48,237.76Z" transform="translate(-64.87 -162)" style="fill:#2a4053;fill-rule:evenodd"/><path d="M206.35,237.12c.41-.33.73.64,1.16.08.07-.09.19-.07.25.08a2,2,0,0,1-1.19,2c-.45.07-.62-.26-1.11-.7.22-.1.42-.2.62-.28l.64-.23A1,1,0,0,1,206.35,237.12Z" transform="translate(-64.87 -162)" style="fill:#fff;fill-rule:evenodd"/><path d="M201.71,240.8c.58-.26,1.15-.05,1.77-.17a6.88,6.88,0,0,1,0,1.66c-.06.25-.41.71-.8.48s-.87-.47-.44-.94C203,241,202,241.12,201.71,240.8Z" transform="translate(-64.87 -162)" style="fill:#fff;fill-rule:evenodd"/><path d="M208.13,241.93c-.57.14-1,.76-1.69.43a.88.88,0,0,1,.06-1c.38.08.06.54.38.66.61-.76-.17-1.14-.52-1.58.57-.6,1.13.43,1.63-.13.2.19.23.42,0,.59C207.52,241.34,207.83,241.63,208.13,241.93Z" transform="translate(-64.87 -162)" style="fill:#fff;fill-rule:evenodd"/><path d="M217.71,301.74h-3.29a2.69,2.69,0,0,1-2-.71c.34,0,.7.11,1.08-.17-.83-.79-1.66-1.59-1.4-2.91a9.85,9.85,0,0,0,2.44-1c-.52-.5-.9-.08-1.33.15a.29.29,0,0,1-.41-.18c0-.11.2-.24.34-.39-.48-.23-1.2,0-1.44-.93a13.46,13.46,0,0,0,7,1.08c-.12.78-.74.13-1,.79a1,1,0,0,0,.06.57c.23.33.62-.11.7-.07a5,5,0,0,0,2,.21c.51,0,.89.61,1.58.22a2.77,2.77,0,0,1,1.38-.22c-.07.38-.35.7-.67.68-1.19-.07-1.24,1-1.78,1.62-.12.12.48.21.18.48s-.42,0-.6-.14a2.34,2.34,0,0,0-2.37-.8c-.15.27.59.51,0,.61s-.42.42-.45.74Z" transform="translate(-64.87 -162)" style="fill:#fff;fill-rule:evenodd"/><path d="M217.71,301.74v-.36H219a8.48,8.48,0,0,1,.88,2.49,1.79,1.79,0,0,1-1.51-.56c-.33-.26,0-.89-.63-.86Z" transform="translate(-64.87 -162)" style="fill:#2a4053;fill-rule:evenodd"/><path d="M216.7,307.37a3.79,3.79,0,0,1,1.33,1.7c-.37.25-.82.11-1.33.08Z" transform="translate(-64.87 -162)" style="fill:#2a4053;fill-rule:evenodd"/><path d="M218.78,266.23c-.76-.18-1.37.54-2.13.36,0-.36-.35-.43-.49-.68a3.3,3.3,0,0,1-2,1c-.72,0-1.35.41-2.12.41a5.2,5.2,0,0,1-2.15-.05c0-.35.22-.36.46-.36a22.29,22.29,0,0,0,2.3-.08c-.85-.42-1.81-.63-2.35-1.52.13-.47.71-.41,1-.71.07-1-.93-.71-1.72-1.25a5.88,5.88,0,0,0,3.94-1c.22-.16.55-.15.59.07.15,1,.93.59,1.31.46a7.19,7.19,0,0,0,2.63-1.33c.09.38.09.39.86.73.18.08.29.31.2.38-.54.37-.12,1.14-.72,1.54.37.23.85.28,1.05.7C219.23,265.38,218.59,265.59,218.78,266.23Z" transform="translate(-64.87 -162)" style="fill:#2a4053;fill-rule:evenodd"/><path d="M213.05,257.9l-.75.83c2.33.23,3.38-1.35,4.51-2.86.17,1.05.08,1.3-.87,2.38.32.28.86.25,1,.73-.13.22-.33.12-.5.16a1.57,1.57,0,0,0-.1.23c.49.32,0,1.64,1.3,1.13-.25.58-.32,1.29-.83,1.4a3,3,0,0,1-2.33-.26c-.24-.14-.35-.23-.34-.48a.66.66,0,0,1,.34-.65c.62-.44,1.12-.09,1.78.13-.73-.9-.73-.9-3-.78,0,0-.12.08-.12.13a2.36,2.36,0,0,0,0,1.18c.26.15.29-.3.5-.19s.12.19.13.29c0,.35-.31.51-.52.66-.53.4-1.26.33-1.84.72a.7.7,0,0,1-.93-.23,2.11,2.11,0,0,0-2-.88c.61-.65,1.13-1,1.34-1.72h-1.72C209.82,259.53,211.18,258.52,213.05,257.9Z" transform="translate(-64.87 -162)" style="fill:#fff;fill-rule:evenodd"/><path d="M210.61,254.52c.06.29-.33.35-.34.56s-.16.63.14.81.55.14.66,0c.72-.66,1.88-.46,2.55-1.43.37.61,1.1.68,1.52,1.2a.62.62,0,0,1,0,.47.33.33,0,0,1-.46.12,1,1,0,0,0-1.37-.11,2.27,2.27,0,0,1-1.18.11c-.43,0-.91,0-1,.42-.22.7-.84-.33-.82.17s-.66.31-.71.75c.91.34,1.59-.18,2.31-.59.2.36.14.45-.27.72a7.87,7.87,0,0,1-4.56,1.38c.15-.74,1.18,0,1.31-.81s-1.63-.8-.63-1.85c-.36-.48-1,.1-1.53-.51,1.49.2,2.44-.78,3.6-1.23A2,2,0,0,1,210.61,254.52Z" transform="translate(-64.87 -162)" style="fill:#fff;fill-rule:evenodd"/><path d="M205.64,255.23c.08-.68.68-.18,1-.46-.25-.38-.27-.88-.69-1.19s-.37-.61,0-1-.05-.51-.31-.74c.44-.38.86-.77,1.33-1.18.39.44-.36,1.45.72,1.65.31-.32-.07-.84.19-1.3a2.52,2.52,0,0,1,1.25,0c.09.29-.4.32-.18.55s.56.14.57-.07c0-.48.56-.75.39-1.26.45.07.93-.11,1.35.08.25.65-.21.69-.78.62a4.46,4.46,0,0,0,1.94.85c-.55.74-1.39.7-2.11.95-.87.29-1.29-.6-2-.78.3,1.23.3,1.23-.49,1.64a2,2,0,0,0,1.05.74A5,5,0,0,1,205.64,255.23Z" transform="translate(-64.87 -162)" style="fill:#fff;fill-rule:evenodd"/><path d="M210.61,254.52c.18-.5-.47-.77-.34-1.26,1-.55,1.9.2,2.89.34C212.57,254.52,212.57,254.52,210.61,254.52Z" transform="translate(-64.87 -162)" style="fill:#2a4053;fill-rule:evenodd"/><path d="M214.16,257.92a1.61,1.61,0,0,1-1.06.14c-.47,0-.94-.87-.69-1.25s.53-.16.8-.15.28.19.39.32S214.21,257.37,214.16,257.92Z" transform="translate(-64.87 -162)" style="fill:#2a4053;fill-rule:evenodd"/><path d="M209.9,250.25c-.42.2-.81.59-1.3.31-.58-.84.44-.9.59-1.37A.86.86,0,0,1,209.9,250.25Z" transform="translate(-64.87 -162)" style="fill:#2a4053;fill-rule:evenodd"/><path d="M221.91,284.92c.39-.36.7-.14,1-.26s0-.67.3-1c.25.59.89.15,1.26.52A2.51,2.51,0,0,1,221.91,284.92Z" transform="translate(-64.87 -162)" style="fill:#2a4053;fill-rule:evenodd"/><path d="M217.71,302.45c.61,0,.3.6.63.86a1.79,1.79,0,0,0,1.51.56c-.74.42-2,.59-2.49.13s-.66-.42-1.09-.14c-.16.1-.3-.09-.33-.29s.05-.39.22-.4C216.78,303.13,217.48,303.32,217.71,302.45Z" transform="translate(-64.87 -162)" style="fill:#2a4053;fill-rule:evenodd"/><path d="M212.39,277.59c0-.33.2-.35.44-.35h2.38a6.46,6.46,0,0,1-2.47-1.78c.55,0,.22-.68.53-.68s.6-.29.83-.51.49-.48.8-.78c-.48-.29-1-.09-1.45-.16,0-.1.09-.29.13-.29a7.94,7.94,0,0,0,4.24-1.19c.51.45-.46.54-.11.93s1.28-.12,1.69.54a.54.54,0,0,0,.51,0c.63-.57,1.52-.82,2-1.54.21-.31,0-.53-.29-.74.39-.42.86,0,1.19-.2.46.28-.5.47.09.86.26.17-.51.08-.65.43s-.46.45-.2.73.28-.24.5-.24.43,0,.44.17.24.72-.22.89c-.21.07-.48,0-.45.36-.25.06-.62-.16-.71.28s-.57.83-1,1.13a.29.29,0,0,1-.41-.17c0-.11.2-.24.32-.37a.79.79,0,0,0-1.1.06c-.89.83-.9.82-1.74.85a1.34,1.34,0,0,0-.35.15,2.53,2.53,0,0,0,2.1.49,4.94,4.94,0,0,1-3.83,1.11c-.55-.1-1,.42-1.53.15S213,277.65,212.39,277.59Z" transform="translate(-64.87 -162)" style="fill:#fff;fill-rule:evenodd"/><path d="M218.5,272.14a2.78,2.78,0,0,1-.38-1.91c1.22-.36,2,.34,2.77,1.13C220.12,271.61,219.68,272.65,218.5,272.14Z" transform="translate(-64.87 -162)" style="fill:#2a4053;fill-rule:evenodd"/><path d="M223.1,290.7c-.49,1.06-1.33.74-2,.69-.22,0-.51-.37-.55-.8a3.74,3.74,0,0,1,.49-1.92C222.15,288.85,222.4,290,223.1,290.7Z" transform="translate(-64.87 -162)" style="fill:#2a4053;fill-rule:evenodd"/><path d="M219.6,275.83a4.5,4.5,0,0,1,3.46,1.59c-.75.58-1.15,1.7-2.45,1.13C219.69,278.14,219.46,277.62,219.6,275.83Z" transform="translate(-64.87 -162)" style="fill:#2a4053;fill-rule:evenodd"/><path d="M225.88,280.79h-1.42v-1.42C225.82,279.64,225.85,279.66,225.88,280.79Z" transform="translate(-64.87 -162)" style="fill:#2a4053;fill-rule:evenodd"/><path d="M205.11,246.71c.34.11,0,.69.55.73a.79.79,0,0,1,.69,1c0,.3.15.41.42.38s.27-.28.3-.51-.11-.58.1-.84a4.4,4.4,0,0,1,.55,2.29c-.6-.11-1.13-.41-1.83,0a10.4,10.4,0,0,0-1.46,1.17,2.21,2.21,0,0,1-.27-2.38C204.68,247.41,204.49,247.33,205.11,246.71Z" transform="translate(-64.87 -162)" style="fill:#fff;fill-rule:evenodd"/><path d="M220.55,320.2c.23.46.71.66,1,1.11a4.82,4.82,0,0,0,1.16,1.07c-.11,1.5-.95.54-1.44.66.05-.54-.67-.2-.69-.55s-.25-.49-.38-.72c-.24-.41-.64.59-.67,0s-.49-.35-.69-.57-.4-.55-.63-.56c-.43,0-.56-.36-.88-.59a2.2,2.2,0,0,0,1.24-.83A3.27,3.27,0,0,0,220.55,320.2Z" transform="translate(-64.87 -162)" style="fill:#2a4053;fill-rule:evenodd"/><path d="M211,333.69c.72,0,1.48.17,2.13-.35v1C212.32,334.34,211.44,334.85,211,333.69Z" transform="translate(-64.87 -162)" style="fill:#2a4053;fill-rule:evenodd"/><path d="M143.39,247.55a.35.35,0,0,1-.3.44s-.15-.1-.14-.14c.05-.23.2-.34.35.06.2-.83-.18-1.41.37-1.82A.92.92,0,0,1,143.39,247.55Z" transform="translate(-64.87 -162)" style="fill-rule:evenodd"/><path d="M142.82,249.12v2.26a.72.72,0,0,1-1-.26C142.38,250.62,142.38,249.84,142.82,249.12Z" transform="translate(-64.87 -162)" style="fill-rule:evenodd"/><path d="M142.18,245.56c-.62-.45-1-1-.67-1.78.16-.33.53-.25.93.07C142.19,244.36,142.7,245,142.18,245.56Z" transform="translate(-64.87 -162)" style="fill-rule:evenodd"/><path d="M161.12,246.12c-1,.42-.83,1.09-1.36,1.47v-1.47Z" transform="translate(-64.87 -162)" style="fill-rule:evenodd"/><path d="M168.74,255.38c-.13.38-.25.75-.46,1.4-.22-1.71-.22-1.71.11-1.75Z" transform="translate(-64.87 -162)" style="fill-rule:evenodd"/><path d="M168.56,252.88a.45.45,0,0,1,.49-.4c.46,0,.53.28.49.62a.42.42,0,0,1-.48.39C168.61,253.48,168.57,253.2,168.56,252.88Z" transform="translate(-64.87 -162)" style="fill-rule:evenodd"/><path d="M163.86,244.45c.56,1.31,0,1.16-.66,1.05Z" transform="translate(-64.87 -162)" style="fill-rule:evenodd"/><path d="M166,249.13c0,.44.31.93-.14,1.42C165.53,250,165.5,249.54,166,249.13Z" transform="translate(-64.87 -162)" style="fill-rule:evenodd"/><path d="M167.26,252.23c-.15-.62-.15-.62,1.2-.56Z" transform="translate(-64.87 -162)" style="fill-rule:evenodd"/><path d="M167.33,320.61a.6.6,0,0,1,0-1A.6.6,0,0,1,167.33,320.61Z" transform="translate(-64.87 -162)" style="fill-rule:evenodd"/><path d="M167.33,324.59c-.32-.45-.46-.76.07-1C167.67,323.91,167.65,324.19,167.33,324.59Z" transform="translate(-64.87 -162)" style="fill-rule:evenodd"/><path d="M135.49,263.6c.06-.06.12-.17.16-.16a1.26,1.26,0,0,1,.33.16s-.12.16-.16.15A2,2,0,0,1,135.49,263.6Z" transform="translate(-64.87 -162)" style="fill-rule:evenodd"/><path d="M165.53,246.39l-.18.18a2.07,2.07,0,0,1-.15-.34s.1-.1.15-.16Z" transform="translate(-64.87 -162)" style="fill-rule:evenodd"/><path d="M169.3,263.35c.06,0,.16.12.16.16a1.44,1.44,0,0,1-.16.33c-.05,0-.16-.12-.15-.16A1.4,1.4,0,0,1,169.3,263.35Z" transform="translate(-64.87 -162)" style="fill-rule:evenodd"/><path d="M170.12,318.81l.17-.18a1.61,1.61,0,0,1,.15.33s-.1.11-.15.17Z" transform="translate(-64.87 -162)" style="fill-rule:evenodd"/><path d="M146.84,253.72c.06-.05.12-.16.17-.15a1.61,1.61,0,0,1,.33.15c-.06.06-.13.17-.16.16A1.5,1.5,0,0,1,146.84,253.72Z" transform="translate(-64.87 -162)" style="fill-rule:evenodd"/><path d="M144.87,322.83c.06-.06.12-.17.16-.16a1.44,1.44,0,0,1,.33.16c-.05.05-.12.16-.16.15A2,2,0,0,1,144.87,322.83Z" transform="translate(-64.87 -162)" style="fill-rule:evenodd"/><path d="M143.88,251.25c.06-.05.12-.16.16-.15a2.07,2.07,0,0,1,.34.15c-.06.06-.12.17-.17.16A1.66,1.66,0,0,1,143.88,251.25Z" transform="translate(-64.87 -162)" style="fill-rule:evenodd"/><path d="M146.28,250.34l-.18.17a1.24,1.24,0,0,1-.15-.33s.1-.1.15-.16Z" transform="translate(-64.87 -162)" style="fill-rule:evenodd"/><path d="M172.91,325c-.88.22-1.54.73-2.37.6-2.22-.33-4.53.58-6.7-.47a1.12,1.12,0,0,1-1.86.05c-.62.67-1.17.32-1.79-.05a.73.73,0,0,0-.9.12,1.56,1.56,0,0,1-1.82.29c-1.8-.73-3.66-.29-5.48-.48-.7-.69-1.4-1.38-2.09-2.09a7.22,7.22,0,0,1-1.16-2.48,2.36,2.36,0,0,1,0-2.62,1.58,1.58,0,0,0-.14-1.62c-.07,0-.14.05-.18.09l-2.1,2.09v2c0,2.29.32,3.05,1.88,4.53-4.81.41-5.56.18-8.28-2.54-.09-.77.25-1.68-.73-2.16a2.27,2.27,0,0,0-.88,1.21c-.73,1.71-2,2.9-4,2.62-.7-.1-1.16,1.23-1.89.21a3.8,3.8,0,0,1-1.94.32c-.31,0-.66.13-.82-.09,2.65-2.14,2.77-5.23,3.23-8.2a8.62,8.62,0,0,0-2,2.7c-.88,2.36-2.88,3.48-5,4.46a6.5,6.5,0,0,1-2.2.61,22.85,22.85,0,0,1-3.7,0c-.46,0-.89-.48-1.36-.74.36-.21.47-.72,1-.71,2.32,0,3.49-1.5,4.53-3.27a15.68,15.68,0,0,0,1-2.08c1.36-3.3,2.2-6.79,3.85-10a33.05,33.05,0,0,1,7.24-8.83,10.9,10.9,0,0,0,2.17-2.78,4.85,4.85,0,0,1,1.21-2.11c3.1.12,4.7-2.39,6.7-4.22.07-.75-.42-1-.95-1.28a11.62,11.62,0,0,1-6.09,2c-3.2.31-6.21-.62-9.17-1.69a5.53,5.53,0,0,0-1.36-.26c-.86-.09-1.77.25-2.54-.47-.17-.17-.64-.07-1,0-.69.13-1.37.84-2.06,0-.73.55-1.66.35-2.44.66a6.16,6.16,0,0,1-3.68,0c-1.42-.3-2.52-.64-3.08-2.12a2.22,2.22,0,0,0-1.25-1.07,2.19,2.19,0,0,1-1.4-2.78,3.51,3.51,0,0,1,3.27.57c0-1.36.59-2.52-.46-3.54-1,.54-2.66,0-2.45,2.31-1-.86-1.78-1.21-1.89-2.1s-.07-1.49.87-1.81a5.79,5.79,0,0,0,4.48,0c1.7-.7,3.37-1.4,5-2.16,2.1-1,3.5-2.62,5.2-4a22,22,0,0,0,4.85-4.89,29.12,29.12,0,0,1,5.63-5.93,12.44,12.44,0,0,1,3.14-1.91,3.41,3.41,0,0,0,2.31-2c-.14-.47.45-1.42-.4-2.14a1.27,1.27,0,0,0,0-2c.53-.43.66-.81.1-1.39s.55-.88.38-1.46c0-.08,0-.17,0-.25a11.34,11.34,0,0,1-.48-4.48c.17-1.55-.62-2.86-1.05-4.21.44-.43.8-.36,1.09,0a7.67,7.67,0,0,0,2.91,1.89v.76c2,.71,2.83,2.56,3.94,4.11,1.25,1.75,2.63,3.43,3.08,5.63,1.06.54.86,1.61.88,2.43.64.35,1,.07,1.16-.28a30.07,30.07,0,0,1,3.37-5.25,64.54,64.54,0,0,0,3.86-7.54c-.19-1.21,1.07-1.86,1-3,1.25.33,1.73,1.35,2.34,2.14,1.57,2.06,3.28,4,4.77,6.15s2,4.93,3.21,7.3" transform="translate(-64.87 -162)" style="fill:none;fill-rule:evenodd"/><path d="M165.11,266.28a1.9,1.9,0,0,0,1.33-1.62,20.49,20.49,0,0,0,.56-7.86,14.33,14.33,0,0,0-1.07-3.72,20.31,20.31,0,0,0-2.81-4.73c-.36-.41-.26-1.1-1-1.35-2.15,3.35-4.28,6.75-6.2,10.33.66,1.27,1.65.34,2.54,0,.55.81.05,1.67.38,2.44.39.17.81.28.86-.32s.46-.64.66-1c1.29.37.61,1.61.91,2.3,1.06.34.88-.52,1-.91h1.22c.44,1.06-.05,2.22.3,3.48l1.35-1.16Z" transform="translate(-64.87 -162)" style="fill:none;fill-rule:evenodd"/><path d="M142.82,249.12c-.44.72-.44,1.5-1,2a.72.72,0,0,0,1,.26Z" transform="translate(-64.87 -162)" style="fill:none;fill-rule:evenodd"/><path d="M142.18,245.56c.52-.56,0-1.2.26-1.71-.4-.32-.77-.4-.93-.07C141.14,244.55,141.56,245.11,142.18,245.56Z" transform="translate(-64.87 -162)" style="fill:none;fill-rule:evenodd"/><path d="M161.12,246.12h-1.36v1.47C160.29,247.21,160.16,246.54,161.12,246.12Z" transform="translate(-64.87 -162)" style="fill:none;fill-rule:evenodd"/><path d="M168.74,255.38l-.35-.35c-.33,0-.33,0-.11,1.75C168.49,256.13,168.61,255.76,168.74,255.38Z" transform="translate(-64.87 -162)" style="fill:none;fill-rule:evenodd"/><path d="M168.56,252.88c0,.32.05.6.5.61a.42.42,0,0,0,.48-.39c0-.34,0-.62-.49-.62A.45.45,0,0,0,168.56,252.88Z" transform="translate(-64.87 -162)" style="fill:none;fill-rule:evenodd"/><path d="M143.88,244.59v-1h-1C143.14,244.19,143.41,244.5,143.88,244.59Z" transform="translate(-64.87 -162)" style="fill:none;fill-rule:evenodd"/><path d="M163.86,244.45l-.66,1.05C163.83,245.61,164.42,245.76,163.86,244.45Z" transform="translate(-64.87 -162)" style="fill:none;fill-rule:evenodd"/><path d="M143.3,247.91c.76-.82.71-1.3.37-1.82C143.12,246.5,143.5,247.08,143.3,247.91Z" transform="translate(-64.87 -162)" style="fill:none;fill-rule:evenodd"/><path d="M166,249.13c-.46.41-.43.85-.14,1.42C166.27,250.06,166,249.57,166,249.13Z" transform="translate(-64.87 -162)" style="fill:none;fill-rule:evenodd"/><path d="M167.26,252.23l1.2-.56C167.11,251.61,167.11,251.61,167.26,252.23Z" transform="translate(-64.87 -162)" style="fill:none;fill-rule:evenodd"/><path d="M167.33,320.61a.6.6,0,0,0,0-1A.6.6,0,0,0,167.33,320.61Z" transform="translate(-64.87 -162)" style="fill:none;fill-rule:evenodd"/><path d="M167.33,324.59c.32-.4.34-.68.07-1C166.87,323.83,167,324.14,167.33,324.59Z" transform="translate(-64.87 -162)" style="fill:none;fill-rule:evenodd"/><path d="M144.18,245.54c.3-.34.32-.83-.08-.91s-.07.44-.2.66C143.88,245.31,144.07,245.45,144.18,245.54Z" transform="translate(-64.87 -162)" style="fill:none;fill-rule:evenodd"/><path d="M143.39,247.55a.35.35,0,0,0-.44.3s.11.15.14.14A.35.35,0,0,0,143.39,247.55Z" transform="translate(-64.87 -162)" style="fill:none;fill-rule:evenodd"/><path d="M135.49,263.6a2,2,0,0,0,.33.15s.11-.1.16-.15a1.26,1.26,0,0,0-.33-.16S135.55,263.54,135.49,263.6Z" transform="translate(-64.87 -162)" style="fill:none;fill-rule:evenodd"/><path d="M165.53,246.39l-.18-.32c0,.06-.16.12-.15.16a2.07,2.07,0,0,0,.15.34Z" transform="translate(-64.87 -162)" style="fill:none;fill-rule:evenodd"/><path d="M169.3,263.35a1.4,1.4,0,0,0-.15.33s.1.11.15.16a1.44,1.44,0,0,0,.16-.33S169.36,263.4,169.3,263.35Z" transform="translate(-64.87 -162)" style="fill:none;fill-rule:evenodd"/><path d="M170.12,318.81l.17.32c.05-.06.16-.13.15-.17a1.61,1.61,0,0,0-.15-.33Z" transform="translate(-64.87 -162)" style="fill:none;fill-rule:evenodd"/><path d="M146.84,253.72a1.5,1.5,0,0,0,.34.16s.1-.1.16-.16a1.61,1.61,0,0,0-.33-.15S146.9,253.67,146.84,253.72Z" transform="translate(-64.87 -162)" style="fill:none;fill-rule:evenodd"/><path d="M144.87,322.83a2,2,0,0,0,.33.15s.11-.1.16-.15a1.44,1.44,0,0,0-.33-.16S144.93,322.77,144.87,322.83Z" transform="translate(-64.87 -162)" style="fill:none;fill-rule:evenodd"/><path d="M143.88,251.25a1.66,1.66,0,0,0,.33.16s.11-.1.17-.16a2.07,2.07,0,0,0-.34-.15S143.94,251.2,143.88,251.25Z" transform="translate(-64.87 -162)" style="fill:none;fill-rule:evenodd"/><path d="M146.28,250.34l-.18-.32c0,.06-.16.12-.15.16a1.24,1.24,0,0,0,.15.33Z" transform="translate(-64.87 -162)" style="fill:none;fill-rule:evenodd"/><path d="M109.84,279.5c.11.89.86,1.24,1.89,2.1-.21-2.31,1.47-1.77,2.45-2.31,1,1,.49,2.18.46,3.54a3.51,3.51,0,0,0-3.27-.57,2.19,2.19,0,0,0,1.4,2.78,2.22,2.22,0,0,1,1.25,1.07c.56,1.48,1.66,1.82,3.08,2.12a6.16,6.16,0,0,0,3.68,0c.78-.31,1.71-.11,2.44-.66.69.84,1.37.13,2.06,0,.32-.05.79-.15,1,0,.77.72,1.68.38,2.54.47a5.53,5.53,0,0,1,1.36.26c3,1.07,6,2,9.17,1.69a11.62,11.62,0,0,0,6.09-2c.53.25,1,.53.95,1.28-2,1.83-3.6,4.34-6.7,4.22a4.85,4.85,0,0,0-1.21,2.11,10.9,10.9,0,0,1-2.17,2.78,33.05,33.05,0,0,0-7.24,8.83c-1.65,3.21-2.49,6.7-3.85,10a15.68,15.68,0,0,1-1,2.08c-1,1.77-2.21,3.3-4.53,3.27-.5,0-.61.5-1,.71.47.26.9.7,1.36.74a22.85,22.85,0,0,0,3.7,0,6.5,6.5,0,0,0,2.2-.61c2.1-1,4.1-2.1,5-4.46a8.62,8.62,0,0,1,2-2.7c-.46,3-.58,6.06-3.23,8.2.16.22.51.06.82.09a3.8,3.8,0,0,0,1.94-.32c.73,1,1.19-.31,1.89-.21,2,.28,3.27-.91,4-2.62a2.27,2.27,0,0,1,.88-1.21c1,.48.64,1.39.73,2.16,2.72,2.72,3.47,2.95,8.28,2.54-1.56-1.48-1.88-2.24-1.88-4.53v-2l2.1-2.09s.11-.05.18-.09a1.58,1.58,0,0,1,.14,1.62,2.36,2.36,0,0,0,0,2.62,7.22,7.22,0,0,0,1.16,2.48c.69.71,1.39,1.4,2.09,2.09,1.82.19,3.68-.25,5.48.48a1.56,1.56,0,0,0,1.82-.29.73.73,0,0,1,.9-.12c.62.37,1.17.72,1.79.05a1.12,1.12,0,0,0,1.86-.05,6,6,0,0,0,2.8.52v.09a24.54,24.54,0,0,0,2.79-.21,8.27,8.27,0,0,1,1.11.07,3.74,3.74,0,0,0,1.9-.45c3.64-.46,7.5-.76,9.82.92-2-7-4.12-16-3.72-23.29.5.25.92.81,1.4,1.08-1.85-6.07-5.08-11.43-4.56-18.12.44.07.81.58,1.23.65-.48-2-1-4-1.53-6-2-7.94-1.36-16.62-3.51-24.27l0-.79c-1.2-2.37-1.66-5-3.21-7.3s-3.2-4.09-4.77-6.15c-.61-.79-1.09-1.81-2.34-2.14,0,1.14-1.22,1.79-1,3a64.54,64.54,0,0,1-3.86,7.54,30.07,30.07,0,0,0-3.37,5.25c-.14.35-.52.63-1.16.28,0-.82.18-1.89-.88-2.43-.45-2.2-1.83-3.88-3.08-5.63-1.11-1.55-1.94-3.4-3.94-4.11a4.54,4.54,0,0,0,.11,1h.11c.37.08.38.49-.1.07q.06.33.18.84c-.11-.09-.3-.23-.28-.25.11-.18-.17-.59,0-.65l-.05,0c-.47-.09-.74-.4-1-1h1v-.76A7.67,7.67,0,0,1,141,241c-.29-.38-.65-.45-1.09,0,.43,1.35,1.22,2.66,1.05,4.21a11.34,11.34,0,0,0,.48,4.48c0,.08,0,.17,0,.25.17.58-.93.9-.38,1.46s.43,1-.1,1.39a1.27,1.27,0,0,1,0,2c.85.72.26,1.67.4,2.14a3.41,3.41,0,0,1-2.31,2,12.44,12.44,0,0,0-3.14,1.91,29.12,29.12,0,0,0-5.63,5.93,22,22,0,0,1-4.85,4.89c-1.7,1.34-3.1,3-5.2,4-1.67.76-3.34,1.46-5,2.16a5.79,5.79,0,0,1-4.48,0C109.77,278,109.74,278.75,109.84,279.5Zm33-7.24s-.1.26-.18.43h-1.11c-.32-1-1.11-1.88-.42-3C142.81,270,142.17,271.54,142.88,272.26Zm17.44-13.76c-.2.32-.62.46-.66,1s-.47.49-.86.32c-.33-.77.17-1.63-.38-2.44-.89.33-1.88,1.26-2.54,0,1.92-3.58,4.05-7,6.2-10.33.78.25.68.94,1,1.35a20.31,20.31,0,0,1,2.81,4.73A14.33,14.33,0,0,1,167,256.8a20.49,20.49,0,0,1-.56,7.86,1.9,1.9,0,0,1-1.33,1.62v-4.07l-1.35,1.16c-.35-1.26.14-2.42-.3-3.48h-1.22c-.13.39,0,1.25-1,.91C160.93,260.11,161.61,258.87,160.32,258.5Zm-3.51,26.17a4.88,4.88,0,0,0-1.74-3.54c1.54-1.47,1.27-3.38,1.1-5.16s-.37-3.56-2.42-4.49c0-.38,0-.86,0-1.34,0-.13.16-.25.28-.43.82.36,2,.52,2.39,1.16s1.32,1.1,1.67,1.72.93.88,1.07,1.51c.34,1.57,1,3,1.45,4.56a9.38,9.38,0,0,1,0,2.56c-1.54-.4-.84-2-1.7-2.53-.06.37-1,.21-.51,1a3.71,3.71,0,0,1,.17,2.83A2.29,2.29,0,0,1,156.81,284.67Zm-9,5.66c-.14-1.2.95-2.31.4-3.59.57-.33.74-.57,1.06-.72,1.93-.89,3.9-1.74,5-3.73.19-.34.55-.26.86,0a6.21,6.21,0,0,1-.39,2.72c-.68,1.67-1.3,3.37-2,5-.24.55-.49.49-1,.29a8.08,8.08,0,0,0,0-1.63c-.14-.63.87-.83.43-1.51-.14-.25-.41-.13-.69-.17-.48.67-.48,1.63-1.17,2.19S149.21,290.94,147.84,290.33ZM136.08,271c.52-1.1,1.73-.65,2.43-1.27,1.68.56,1.11,2.82,2.87,3.45.49-.18,1.25.25,1.88-.11l1.61-1.61c0-.21,0-.43,0-.65a1.94,1.94,0,0,1,.18-.93,1.52,1.52,0,0,1,.91-.7c.33.24.72.68,1.34.57a1.13,1.13,0,0,1,1.44.81c-.17.18-.33.47-.53.5a2.88,2.88,0,0,0-2.07,1.51,4.6,4.6,0,0,1-7.65.34,3.78,3.78,0,0,0-2-1.51C136.26,271.37,136.15,271.12,136.08,271Z" transform="translate(-64.87 -162)" style="fill:#fff"/></svg>